<svg version="1.1" xmlns="http://www.w3.org/2000/svg" viewBox="0 0 1561.0920770462837 1402.1549580891926" width="1561.0920770462837" height="1402.1549580891926">
  <!-- svg-source:excalidraw -->
  
  <defs>
    <style>
      @font-face {
        font-family: "Virgil";
        src: url("https://excalidraw.com/Virgil.woff2");
      }
      @font-face {
        font-family: "Cascadia";
        src: url("https://excalidraw.com/Cascadia.woff2");
      }
    </style>
  </defs>
  <rect x="0" y="0" width="1561.0920770462837" height="1402.1549580891926" fill="#ffffff"></rect><g transform="translate(287.57127423052856 29.428833007812685) rotate(0 59 13)"><text x="0" y="18" font-family="Virgil, Segoe UI Emoji" font-size="20px" fill="#000000" text-anchor="start" style="white-space: pre;" direction="ltr">LandingPage</text></g><g stroke-linecap="round" transform="translate(15.59363344276818 63.33767191569028) rotate(0 372.74087524414057 238.5720672607422)"><path d="M-0.17 -0.48 C235.05 -1.06, 470.12 -1.79, 745.61 -0.18 M0.05 -0.01 C182.79 -0.19, 365.86 -0.26, 745.14 -0.13 M745.59 0.26 C743.94 96.08, 744.63 191.92, 745.78 476.59 M745.16 0.27 C744.77 124.32, 744.69 247.63, 745.21 477.21 M746.07 477.02 C455.6 475.99, 166.61 475.98, 0.32 476.52 M745.29 477.24 C519.17 474.81, 292.38 475.1, -0.17 476.86 M0.45 477.35 C-0.07 326.77, -1.11 177.34, -0.44 -0.23 M-0.42 476.86 C0.57 331.42, 1.04 185.99, -0.36 -0.07" stroke="#000000" stroke-width="2" fill="none"></path></g><g transform="translate(195.82111147011182 278.48620096842467) rotate(0 233 20)"><text x="233" y="14" font-family="Virgil, Segoe UI Emoji" font-size="16px" fill="#000000" text-anchor="middle" style="white-space: pre;" direction="ltr">A place to share ideas, have discussions &amp; build solutions.</text><text x="233" y="34" font-family="Virgil, Segoe UI Emoji" font-size="16px" fill="#000000" text-anchor="middle" style="white-space: pre;" direction="ltr"></text></g><g transform="translate(251.11005189979954 208.20601439289214) rotate(0 153.5 33.5)"><text x="153.5" y="23.5" font-family="Virgil, Segoe UI Emoji" font-size="26.386295366890813px" fill="#000000" text-anchor="middle" style="white-space: pre;" direction="ltr">The First Open Source </text><text x="153.5" y="57" font-family="Virgil, Segoe UI Emoji" font-size="26.386295366890813px" fill="#000000" text-anchor="middle" style="white-space: pre;" direction="ltr">Idea Incubator </text></g><g stroke-linecap="round" transform="translate(46.32715395058068 86.66665903727231) rotate(0 30.883255004882812 11.73828125)"><path d="M0 0 C0 0, 0 0, 0 0 M0 0 C0 0, 0 0, 0 0 M0.86 11.19 C1.89 9.64, 5.31 4.02, 11.69 -1.28 M-0.02 11.99 C3.94 8.11, 6.06 4.05, 11.19 -0.71 M0.47 23.41 C6.69 15.77, 9.41 11.85, 23.15 -0.35 M0.61 23.75 C4.49 17.89, 9.67 13.37, 20.59 -0.19 M12.18 26.01 C17.99 16.75, 25.66 6.26, 30.02 0.31 M10.62 24.21 C17.8 15.87, 24.46 6.93, 31.52 -0.87 M21.19 22.63 C26.38 14.17, 33.99 8.66, 42.54 0.77 M20.85 24.62 C29.6 14.03, 38.67 5.69, 42.77 -0.48 M31.99 23.15 C38.09 14.77, 47.07 7.73, 53.61 1.45 M32.7 24.67 C38.82 16.3, 47.04 7.32, 54.03 -1.13 M43.99 25.51 C49.88 15.23, 53.82 9.13, 64.44 1.6 M42.62 23.49 C49.66 16.14, 57.41 6.75, 62.35 0.28 M53.5 25.16 C57.03 21.36, 58.89 15.93, 62.15 14.57 M53.16 24.46 C54.89 21.45, 57.77 18.86, 62.63 13.05" stroke="#000" stroke-width="1" fill="none"></path><path d="M0.84 1.45 C15.96 -0.87, 31.92 0.4, 59.8 -1.15 M0.09 -0.87 C22.15 -0.51, 45.22 -0.09, 61.63 -0.95 M61.28 -0.37 C60.91 6.39, 62.43 18.53, 60.82 21.84 M61.62 0.79 C61.21 8.2, 62.78 17.14, 61.64 23.03 M60.11 25.43 C40.16 24.28, 21.79 23.44, -0.06 21.87 M60.85 22.69 C43.65 24.8, 27.13 24.61, 0.74 23.07 M-1.83 23.37 C0.68 18.7, 0.74 14.99, 1.98 0.99 M-0.02 23.71 C0.06 16.21, -0.27 9.92, 0.98 -0.73" stroke="#000000" stroke-width="2" fill="none"></path></g><g stroke-linecap="round" transform="translate(324.16998842323693 318.3246866861981) rotate(0 71.89886474609375 18.869361877441406)"><path d="M11.06 1.1 L140.48 -0.44 L144.3 6.69 L142.1 34.02 L141.85 36.15 L136.12 35.81 L5.38 37.7 L0.18 33.64 L1.57 10.41 L0.72 1.1 L8.8 1.32" stroke="none" stroke-width="0" fill="#000"></path><path d="M9.43 0 M9.43 0 C53.32 -0.94, 96.64 -1.77, 134.36 0 M9.43 0 C57.36 -0.54, 107.61 0.35, 134.36 0 M134.36 0 C138.98 0.12, 145.58 3.45, 143.8 9.43 M134.36 0 C142.88 -2.28, 143.65 2.41, 143.8 9.43 M143.8 9.43 C142.87 16.07, 145.14 22.7, 143.8 28.3 M143.8 9.43 C143.93 14.25, 143.12 20, 143.8 28.3 M143.8 28.3 C145.21 34.47, 140.54 37.14, 134.36 37.74 M143.8 28.3 C143.23 32.76, 139.56 38.11, 134.36 37.74 M134.36 37.74 C93 35.64, 53.97 37.92, 9.43 37.74 M134.36 37.74 C98.63 39.64, 61.83 38.32, 9.43 37.74 M9.43 37.74 C3.9 38.42, 1.99 33.88, 0 28.3 M9.43 37.74 C4.72 37.47, 1.58 35.59, 0 28.3 M0 28.3 C1.42 22.82, -1.55 14.21, 0 9.43 M0 28.3 C-0.68 23.63, 0.58 20.12, 0 9.43 M0 9.43 C-1.63 4.86, 1.42 1.94, 9.43 0 M0 9.43 C-0.11 4.16, 2.47 -1.62, 9.43 0" stroke="#000000" stroke-width="2" fill="none"></path></g><g stroke-linecap="round" transform="translate(572.0432794388621 84.52120067700405) rotate(0 38.369679680370496 12.785241319737196)"><path d="M8.29 0.44 L73.34 -1.02 L74.82 4.81 L75.85 21.84 L75.13 26.31 L68.87 26.26 L5.28 26.39 L2.38 20.49 L1.85 5.82 L3.26 1.44 L8.13 -1.26" stroke="none" stroke-width="0" fill="#fff"></path><path d="M6.39 0 M6.39 0 C25.78 -0.14, 46.77 0.88, 70.35 0 M6.39 0 C31.58 -0.1, 54.79 0.19, 70.35 0 M70.35 0 C75.48 1.84, 77.88 2, 76.74 6.39 M70.35 0 C76.19 -1.74, 78.12 0.23, 76.74 6.39 M76.74 6.39 C77.78 11.38, 77.86 14.85, 76.74 19.18 M76.74 6.39 C76.46 9.88, 76.87 14.03, 76.74 19.18 M76.74 19.18 C76.65 22.4, 75.62 26.3, 70.35 25.57 M76.74 19.18 C77.35 24.26, 73.94 24.72, 70.35 25.57 M70.35 25.57 C50.12 23.91, 30.09 26.41, 6.39 25.57 M70.35 25.57 C47.75 26.5, 24.82 26.15, 6.39 25.57 M6.39 25.57 C1.98 25.08, -0.99 23.24, 0 19.18 M6.39 25.57 C1.54 23.87, 1.77 25.37, 0 19.18 M0 19.18 C-0.69 13.67, 0.15 8.73, 0 6.39 M0 19.18 C0.39 15.48, 0.04 11.4, 0 6.39 M0 6.39 C0.33 3.29, 3.73 0.97, 6.39 0 M0 6.39 C1.75 2.08, 4.05 -0.19, 6.39 0" stroke="#000000" stroke-width="2" fill="none"></path></g><g transform="translate(587.1494472242271 86.38277007884474) rotate(0 27.659338967769486 11.985713552700112)"><text x="0" y="17.971427105400224" font-family="Virgil, Segoe UI Emoji" font-size="18.439559311846327px" fill="#000000" text-anchor="start" style="white-space: pre;" direction="ltr">SignUp</text></g><g stroke-linecap="round" transform="translate(664.1966202734329 82.88372470494107) rotate(0 38.369679680370496 12.785241319737196)"><path d="M4.8 0.71 L74.82 0.74 L78.01 2.71 L75 20.96 L73.14 24.98 L68.43 26.99 L3.98 26.72 L-0.18 23.88 L-1.2 4.5 L0.76 3.31 L6.63 -1.76" stroke="none" stroke-width="0" fill="#fff"></path><path d="M6.39 0 M6.39 0 C23.43 1.22, 36.4 1.53, 70.35 0 M6.39 0 C23.08 0.79, 39.69 0.64, 70.35 0 M70.35 0 C73.48 -1.15, 77.6 2.99, 76.74 6.39 M70.35 0 C75.95 1.56, 78.11 1.17, 76.74 6.39 M76.74 6.39 C77.74 10.82, 77.73 15.66, 76.74 19.18 M76.74 6.39 C76.74 11, 76.29 16.01, 76.74 19.18 M76.74 19.18 C75.02 25.29, 74.86 27.34, 70.35 25.57 M76.74 19.18 C74.92 23.11, 76.76 27.63, 70.35 25.57 M70.35 25.57 C49.26 24.5, 28.25 27.28, 6.39 25.57 M70.35 25.57 C45.45 25.95, 20.37 26.64, 6.39 25.57 M6.39 25.57 C3.66 23.75, 1.03 22.38, 0 19.18 M6.39 25.57 C3.47 25.2, 0.83 23.25, 0 19.18 M0 19.18 C-0.16 15.42, 0.1 10.78, 0 6.39 M0 19.18 C-0.27 14.96, -0.72 10.08, 0 6.39 M0 6.39 C0.56 2.19, 3.43 1.41, 6.39 0 M0 6.39 C-0.34 3.42, 0.08 2.25, 6.39 0" stroke="#000000" stroke-width="2" fill="none"></path></g><g transform="translate(679.3027880587999 84.74529410678176) rotate(0 24.43241608819642 11.985713552700112)"><text x="0" y="17.971427105400224" font-family="Virgil, Segoe UI Emoji" font-size="18.439559311846324px" fill="#000000" text-anchor="start" style="white-space: pre;" direction="ltr">LogIn</text></g><g transform="translate(337.31671693886193 326.6293741861981) rotate(0 59 10)"><text x="0" y="14" font-family="Virgil, Segoe UI Emoji" font-size="16px" fill="#fff" text-anchor="start" style="white-space: pre;" direction="ltr">Get Started &gt;</text></g><g transform="translate(1098.1411187943306 681.0324452718102) rotate(0 61.5 13)"><text x="0" y="18" font-family="Virgil, Segoe UI Emoji" font-size="20px" fill="#000000" text-anchor="start" style="white-space: pre;" direction="ltr">AccountPage</text></g><g stroke-linecap="round" transform="translate(804.6832330521431 713.9321950276695) rotate(0 372.7408752441406 292.9622802734375)"><path d="M0.67 -0.33 C223.11 -1.95, 445.51 -0.71, 745.36 -0.59 M0.12 0.33 C211.11 -1.91, 422.34 -1.81, 745.79 0.35 M745.8 0.02 C743.06 163.3, 744.5 327.69, 746.05 586.05 M745.67 0.32 C746.09 167.19, 745.62 335.06, 745.27 586.14 M745.9 585.37 C529.47 586.32, 312.54 586.36, -0.45 586.57 M745.52 585.7 C467.36 586.8, 189.46 586.64, -0.07 586.01 M0.24 586.25 C1.75 439.09, 2.68 291.4, -0.49 0.33 M0.08 585.69 C0.67 416.05, 0.53 246.25, 0.02 0.33" stroke="#000000" stroke-width="2" fill="none"></path></g><g transform="translate(1085.3366957800079 10) rotate(0 33.5 13)"><text x="33.5" y="18" font-family="Virgil, Segoe UI Emoji" font-size="20px" fill="#000000" text-anchor="middle" style="white-space: pre;" direction="ltr">Header</text></g><g stroke-linecap="round" transform="translate(787.8648940221954 65.14839172363281) rotate(0 372.7408752441406 30.138900756835938)"><path d="M0.63 -0.41 C228.92 0.27, 459.51 -0.18, 744.88 0.24 M-0.03 0.39 C263.8 -0.2, 528.06 -0.37, 745.59 -0.12 M745.89 -0.36 C745.19 18.85, 747.74 39.82, 747.18 59 M746.02 0.69 C745.66 20, 745.69 39.62, 745.11 59.42 M744.97 60.2 C460.49 61.79, 176.11 61.22, 0.39 61.02 M745.17 60.15 C521.81 60.34, 298.4 60.49, -0.39 59.92 M-0.79 59.34 C-1.4 43.37, -0.73 27, -0.52 0.18 M0.25 61.07 C0.43 38.05, -0.53 17.9, -0.96 0.62" stroke="#000000" stroke-width="2" fill="none"></path></g><g stroke-linecap="round" transform="translate(844.4698897497344 85.66104125976562) rotate(0 30.883255004882812 11.73828125)"><path d="M0 0 C0 0, 0 0, 0 0 M0 0 C0 0, 0 0, 0 0 M-0.38 10.7 C3.4 9.7, 5.7 3.61, 10.58 0.44 M0.56 12.45 C3.4 8.4, 6.88 5.08, 10.13 -0.62 M0.36 22.68 C7.72 19.11, 11.48 11.68, 22.14 1.68 M0.81 23.33 C8.62 14.64, 14.73 5.33, 21.34 0.09 M9.89 24.95 C18.75 14.92, 24.98 8.26, 32.98 1.86 M11.05 23.19 C15.68 18.81, 21.58 12.96, 32.01 -0.43 M20.83 24.38 C25.71 17.45, 33.75 7.52, 42.75 -1.24 M20.91 23.23 C25.81 17.68, 32.97 10.61, 42.31 -1.05 M31.33 24.15 C35.23 18.8, 42.09 12.76, 52.04 0.14 M31.47 23.99 C38.99 17.55, 43.23 10.09, 52.59 -0.06 M44.5 25.5 C45.56 17.19, 53.91 13.13, 63.74 -1.44 M41.8 24.44 C48.2 16.83, 53.56 11.43, 63.56 0.53 M54.08 25.2 C57.25 21.09, 58.87 18.04, 63.91 14.64 M53.85 23.3 C55.56 21.3, 58.04 18.18, 62.73 13.59" stroke="#000" stroke-width="1" fill="none"></path><path d="M1.16 -1.2 C14.14 -1.55, 31.15 -2.15, 63.33 -1.95 M-0.28 -0.02 C12.85 0.12, 27.47 -0.18, 60.79 0.53 M62.32 1.47 C62.14 6.01, 62.55 15.51, 62.09 24.48 M61.82 -0.65 C62.81 6.1, 61.34 11.27, 62.43 24.42 M61.83 24.99 C38.42 23.23, 12.16 23.1, 0.1 23.01 M62.08 23.13 C48.51 23.64, 36.91 23.73, -0.45 23.14 M-1.77 23.23 C0.58 19.88, -0.61 10.69, 1.86 -1 M0.37 23.06 C-0.22 15.57, 0.7 6.36, 0.83 0.61" stroke="#000000" stroke-width="2" fill="none"></path></g><g stroke-linecap="round" transform="translate(928.7212172643829 81.05380249023438) rotate(0 15.002166748046875 15.002166748046879)"><path d="M18.18 0.22 C21.41 0.63, 25.86 2.44, 27.71 4.98 C29.57 7.51, 29.4 12.02, 29.31 15.43 C29.22 18.84, 29.33 23.02, 27.16 25.44 C24.98 27.85, 19.68 29.49, 16.25 29.9 C12.82 30.31, 9.26 29.43, 6.58 27.89 C3.9 26.36, 0.95 23.62, 0.15 20.69 C-0.65 17.76, 0.35 13.64, 1.76 10.33 C3.18 7.03, 5.76 2.34, 8.65 0.88 C11.54 -0.58, 16.99 1.38, 19.09 1.55 C21.19 1.72, 21.41 1.85, 21.26 1.89 M10.31 0.76 C12.87 -0.34, 15.61 -0.74, 18.52 0.44 C21.43 1.63, 25.88 5.08, 27.76 7.88 C29.64 10.68, 30.24 14.18, 29.8 17.27 C29.36 20.35, 27.44 24.05, 25.15 26.4 C22.86 28.75, 19.1 31.27, 16.04 31.38 C12.98 31.49, 9.42 29.23, 6.79 27.06 C4.17 24.9, 0.87 21.38, 0.28 18.39 C-0.31 15.41, 1.85 11.97, 3.25 9.17 C4.66 6.38, 7.82 2.79, 8.7 1.64 C9.58 0.48, 8.52 2.11, 8.54 2.23" stroke="none" stroke-width="0" fill="#000"></path><path d="M11.72 0.55 C14.86 -0.3, 19.28 -0.51, 22.16 0.84 C25.04 2.19, 27.73 5.5, 29 8.65 C30.27 11.79, 30.85 16.57, 29.8 19.72 C28.74 22.87, 25.39 25.74, 22.65 27.52 C19.91 29.31, 16.3 30.93, 13.36 30.44 C10.41 29.95, 7.09 27.11, 5 24.58 C2.91 22.05, 1.13 18.53, 0.83 15.29 C0.52 12.04, 1.01 7.59, 3.18 5.11 C5.34 2.62, 11.53 1.16, 13.82 0.39 C16.12 -0.38, 16.91 0.37, 16.95 0.51 M14.56 0.27 C17.16 0.23, 20.75 2.28, 23.26 4.07 C25.77 5.85, 28.82 8.04, 29.63 10.99 C30.44 13.93, 29.84 18.61, 28.12 21.75 C26.41 24.89, 22.17 28.76, 19.36 29.83 C16.55 30.9, 14.36 29.62, 11.26 28.15 C8.17 26.69, 2.63 23.45, 0.8 21.03 C-1.04 18.62, -0.28 16.64, 0.25 13.66 C0.79 10.68, 1.78 5.62, 4.02 3.15 C6.27 0.67, 11.69 -0.74, 13.71 -1.18 C15.73 -1.62, 16.03 0.04, 16.16 0.51" stroke="#000000" stroke-width="2" fill="none"></path></g><g stroke-linecap="round" transform="translate(1435.737177957742 80.77041625976562) rotate(0 15.002166748046875 15.002166748046879)"><path d="M1.32 7.78 C1.32 7.78, 1.32 7.78, 1.32 7.78 M1.32 7.78 C1.32 7.78, 1.32 7.78, 1.32 7.78 M2.66 17.89 C6.16 13.69, 9.24 11.3, 14.19 4.5 M2.49 17.91 C7.75 14.08, 11.01 8, 13.82 4.23 M7.29 27.92 C10.09 20.84, 18.43 13.72, 25.1 2.87 M7 27.47 C13.33 18.43, 19.65 10.75, 25.78 4.99 M10.5 30.11 C17.15 24.09, 23.6 18.8, 29.91 8.25 M11.28 32.5 C16.24 25.71, 21.6 20.67, 31.85 9.74" stroke="#000" stroke-width="1" fill="none"></path><path d="M20.28 0.04 C23.26 0.69, 25.65 3.73, 27.39 6.7 C29.13 9.66, 31.2 14.51, 30.72 17.84 C30.23 21.17, 26.91 24.59, 24.46 26.67 C22.01 28.76, 19.1 30.3, 16.03 30.34 C12.96 30.39, 8.51 29.11, 6.05 26.95 C3.58 24.79, 2.03 20.6, 1.25 17.39 C0.47 14.19, 0.1 10.58, 1.37 7.72 C2.64 4.86, 5.48 1.39, 8.9 0.25 C12.32 -0.89, 19.76 0.4, 21.89 0.87 C24.02 1.35, 21.91 2.65, 21.68 3.1 M16.99 -0.73 C20.27 -0.63, 23.53 1.15, 25.85 3.65 C28.16 6.16, 30.74 10.97, 30.88 14.3 C31.01 17.64, 28.83 21.08, 26.65 23.64 C24.47 26.2, 20.91 29, 17.79 29.67 C14.68 30.34, 10.51 28.95, 7.97 27.68 C5.42 26.41, 3.56 24.56, 2.54 22.05 C1.53 19.55, 1.11 15.7, 1.88 12.65 C2.65 9.59, 4.87 5.79, 7.18 3.72 C9.49 1.64, 14.06 0.74, 15.75 0.2 C17.44 -0.34, 17.33 0.25, 17.34 0.5" stroke="#000000" stroke-width="2" fill="none"></path></g><g stroke-linecap="round" transform="translate(1019.7151747839141 79.94265747070312) rotate(0 177.37631225585938 16.111145019531257)"><path d="M8.2 -1.85 L347.61 -1.38 L349.25 -1.46 L352.42 6.5 L354.72 25.24 L354.73 31.29 L346.43 32.98 L8.7 34.17 L0.11 29.76 L1.4 23.72 L2.32 5.49 L3.06 2.38 L8.72 1.46" stroke="none" stroke-width="0" fill="#fff"></path><path d="M8.06 0 M8.06 0 C130.39 1.98, 255.8 1.88, 346.7 0 M8.06 0 C86.45 0.39, 166.13 0.32, 346.7 0 M346.7 0 C351.67 -0.97, 353.7 4.5, 354.75 8.06 M346.7 0 C353.86 1.43, 356.89 2.86, 354.75 8.06 M354.75 8.06 C353.91 11.77, 353.13 16.97, 354.75 24.17 M354.75 8.06 C354.89 11.72, 354.58 15.51, 354.75 24.17 M354.75 24.17 C356.15 30.02, 350.48 34.16, 346.7 32.22 M354.75 24.17 C352.55 29.23, 349.95 30.37, 346.7 32.22 M346.7 32.22 C240.66 33.41, 131.5 33.38, 8.06 32.22 M346.7 32.22 C220.23 34.1, 92.88 34.37, 8.06 32.22 M8.06 32.22 C1.62 33.31, -0.82 30.23, 0 24.17 M8.06 32.22 C2.57 33.25, 0.21 31.74, 0 24.17 M0 24.17 C-1.22 16.93, -0.1 12.79, 0 8.06 M0 24.17 C-0.08 17.65, 0.6 12.29, 0 8.06 M0 8.06 C1.33 2.77, 1.84 1.51, 8.06 0 M0 8.06 C-0.31 0.8, 4.35 0.62, 8.06 0" stroke="#000000" stroke-width="2" fill="none"></path></g><g stroke-linecap="round" transform="translate(1035.0140944616485 84.950927734375) rotate(0 10.6640625 10.664062500000002)"><path d="M3.69 3.21 C3.69 3.21, 3.69 3.21, 3.69 3.21 M3.69 3.21 C3.69 3.21, 3.69 3.21, 3.69 3.21 M1.25 18.28 C4.94 11.99, 11.08 7.82, 14.13 1.74 M3.38 16 C5.59 12.51, 9.87 7.75, 13.74 2.38 M7.68 21.05 C14.41 16.14, 16.58 11.96, 22.76 6.32 M8.41 20.84 C13.33 16.35, 17.87 9.59, 23.08 5.26" stroke="#000" stroke-width="1" fill="none"></path><path d="M11.46 0.61 C13.65 0.25, 15.78 0.59, 17.55 2.05 C19.32 3.52, 21.56 7.05, 22.07 9.38 C22.58 11.7, 21.95 13.98, 20.59 15.99 C19.24 18, 16.21 20.78, 13.94 21.42 C11.66 22.07, 8.89 20.74, 6.93 19.89 C4.97 19.03, 3.42 18.06, 2.18 16.31 C0.93 14.56, -0.76 11.52, -0.54 9.37 C-0.32 7.22, 1.56 4.99, 3.5 3.43 C5.45 1.87, 9.88 0.39, 11.1 0 C12.33 -0.38, 10.73 0.91, 10.86 1.12 M12.73 0.67 C14.74 1.14, 17.91 3.03, 19.58 4.89 C21.25 6.76, 22.67 9.65, 22.75 11.84 C22.82 14.03, 22.01 16.42, 20.03 18.03 C18.05 19.65, 13.16 21.39, 10.86 21.52 C8.56 21.65, 7.75 20.21, 6.23 18.83 C4.72 17.46, 2.53 15.23, 1.77 13.27 C1.02 11.31, 1.28 9.01, 1.7 7.08 C2.13 5.15, 2.52 2.77, 4.32 1.7 C6.13 0.64, 11.24 0.91, 12.56 0.69 C13.88 0.48, 12.2 0.1, 12.23 0.41" stroke="#000000" stroke-width="2" fill="none"></path></g><g transform="translate(1074.232508768289 87.46786499023438) rotate(0 144 10)"><text x="144" y="14" font-family="Virgil, Segoe UI Emoji" font-size="16px" fill="#495057" text-anchor="middle" style="white-space: pre;" direction="ltr">Search Anything (Press "/" to focus)</text></g><g stroke-linecap="round" transform="translate(805.00522401894 713.6344807942711) rotate(0 372.7408752441406 30.138900756835938)"><path d="M-0.51 -0.49 C256.62 -2.67, 514.8 -1.38, 745 0.56 M-0.2 0.26 C180.98 -0.5, 362.02 -0.47, 745.8 0.33 M746.48 0.68 C745.34 11.13, 745.24 24.47, 743.81 62.18 M745.14 0.96 C744.82 18.31, 746.03 38.41, 745.74 59.59 M745.73 59.56 C540.82 60.48, 337.96 60.34, -0.08 60.09 M745.46 60.08 C539.13 61.84, 332.18 62.04, -0.07 59.98 M0.32 59.23 C-0.05 47.86, 1.22 37.23, -1.62 0.46 M0.67 59.35 C-0.16 47.11, 0.42 34.16, 0.09 -0.32" stroke="#000000" stroke-width="2" fill="none"></path></g><g stroke-linecap="round" transform="translate(861.6102197464791 734.1471303304039) rotate(0 30.883255004882812 11.73828125)"><path d="M0 0 C0 0, 0 0, 0 0 M0 0 C0 0, 0 0, 0 0 M-0.7 12.83 C3.18 9.17, 4.59 5.47, 11.67 -0.4 M0.81 11.3 C4.57 8.25, 7.34 3.33, 10.12 -0.23 M2.03 24.93 C6.47 18.08, 13.71 6.66, 21.13 0.45 M0.25 25 C9.39 14.22, 17.1 5.95, 20.27 -0.47 M9.8 23.58 C17.72 19.73, 20.99 13.26, 31 -1.68 M10.93 23.83 C16.33 17.43, 20.92 11.98, 31.79 -0.41 M19.84 25.29 C28.27 18.9, 32.81 12.47, 42.02 1.77 M20.67 23.21 C28.5 16.36, 32.96 9.05, 41.9 -0.3 M34.15 25.23 C35.35 18.72, 44.1 12.8, 54.75 0.39 M32.09 23.7 C39.11 16.14, 46.31 7.72, 53.44 -0.29 M42.78 23.48 C47.3 19.19, 55.71 12.67, 63.15 -0.51 M43.25 23.9 C47.82 17.55, 53.63 12.5, 63.06 1.25 M53.72 23.34 C56.87 19.15, 58.94 16.18, 63.63 12.3 M52.92 23.56 C56.05 20.59, 59.29 16.73, 61.96 12.77" stroke="#000" stroke-width="1" fill="none"></path><path d="M-1.22 -1.99 C15.78 0.32, 36.6 -0.82, 63.18 -1.14 M0.64 -0.09 C19.21 0.27, 38.58 1.1, 62.59 -0.93 M62.44 0.24 C60.41 5.68, 61.27 9.41, 63.67 23.84 M62.73 -0.54 C61.1 7.23, 62.01 13.37, 61.08 23.21 M59.96 21.73 C39.17 24.67, 16.9 23.48, -0.47 23.02 M61.27 24.35 C42.25 23.67, 23.14 23.29, -0.74 22.54 M-1.05 23.05 C0.09 18.74, 1.92 10.69, 0.46 -1.63 M-0.93 22.98 C-0.11 17.81, 0.12 12.06, -0.32 -0.28" stroke="#000000" stroke-width="2" fill="none"></path></g><g stroke-linecap="round" transform="translate(945.8615472611275 729.5398915608727) rotate(0 15.002166748046875 15.002166748046875)"><path d="M15.94 -0.84 C18.8 -0.69, 22.89 2.07, 25.25 4.47 C27.62 6.87, 29.87 10.3, 30.14 13.55 C30.4 16.79, 28.72 21.11, 26.86 23.94 C24.99 26.77, 22.17 29.74, 18.94 30.52 C15.72 31.31, 10.6 30.35, 7.51 28.67 C4.43 26.99, 1.51 23.32, 0.44 20.45 C-0.64 17.58, 0.19 14.5, 1.08 11.43 C1.97 8.35, 2.7 3.77, 5.78 2 C8.87 0.23, 16.83 0.76, 19.6 0.81 C22.36 0.85, 22.53 2.08, 22.4 2.26 M15.99 0.65 C18.7 0.78, 23 3.58, 25.11 5.64 C27.22 7.7, 28.24 9.72, 28.65 13.03 C29.06 16.34, 29.36 22.58, 27.58 25.5 C25.79 28.42, 21.42 30.12, 17.94 30.57 C14.46 31.01, 9.31 29.7, 6.69 28.19 C4.08 26.68, 3.07 24.71, 2.26 21.51 C1.45 18.32, 1.15 12.2, 1.84 9.02 C2.54 5.84, 4.04 4.11, 6.41 2.41 C8.79 0.71, 14.17 -0.8, 16.09 -1.18 C18.01 -1.57, 17.94 -0.51, 17.93 0.08" stroke="none" stroke-width="0" fill="#000"></path><path d="M7.79 2.24 C10.36 0.63, 14.78 -0.01, 18.02 0.56 C21.27 1.13, 25.18 3.09, 27.27 5.65 C29.37 8.21, 30.87 12.63, 30.62 15.92 C30.36 19.2, 28.08 22.89, 25.74 25.35 C23.41 27.82, 19.65 30.51, 16.6 30.71 C13.56 30.9, 10.25 28.45, 7.47 26.53 C4.69 24.61, 0.9 22.06, -0.05 19.18 C-1 16.31, 0.27 12.36, 1.78 9.27 C3.29 6.18, 7.7 1.99, 8.99 0.63 C10.28 -0.73, 9.6 0.63, 9.54 1.13 M15.86 1.5 C18.83 1.15, 22.33 1.08, 24.85 3.13 C27.37 5.18, 30.49 10.56, 30.96 13.81 C31.42 17.06, 29.73 19.88, 27.64 22.63 C25.55 25.38, 21.56 29.27, 18.43 30.33 C15.3 31.4, 11.91 30.76, 8.84 29.04 C5.77 27.31, 1.5 22.85, 0.03 19.98 C-1.44 17.11, -0.92 14.72, 0.02 11.81 C0.97 8.91, 3.03 4.55, 5.69 2.53 C8.36 0.52, 14.2 -0.04, 16.02 -0.28 C17.84 -0.51, 16.58 0.95, 16.61 1.13" stroke="#000000" stroke-width="2" fill="none"></path></g><g stroke-linecap="round" transform="translate(1452.8775079544869 729.2565053304039) rotate(0 15.002166748046875 15.002166748046875)"><path d="M5.67 3.6 C5.67 3.6, 5.67 3.6, 5.67 3.6 M5.67 3.6 C5.67 3.6, 5.67 3.6, 5.67 3.6 M4.67 16.51 C8.05 12.9, 14.16 9.36, 16.89 1.99 M3.56 17.63 C8.5 13.41, 11.45 8.99, 18.21 2.06 M5.81 27.05 C11.94 17.57, 21.2 11.08, 24.57 6.03 M5.67 27.58 C13.18 19.71, 20.43 11.96, 26.46 4.12 M13.31 30.15 C19.01 24.74, 26.65 16.02, 31.45 13.4 M12.47 31.36 C17.8 27.32, 21.17 20.83, 29.67 13.47" stroke="#000" stroke-width="1" fill="none"></path><path d="M15.42 -0.57 C18.37 -0.69, 22.25 1.26, 24.55 3.48 C26.85 5.7, 28.64 9.64, 29.22 12.76 C29.8 15.87, 29.52 19.47, 28.04 22.18 C26.56 24.88, 23.21 27.68, 20.36 28.99 C17.51 30.3, 14.12 31.17, 10.93 30.02 C7.74 28.88, 3.02 24.92, 1.23 22.11 C-0.56 19.3, -0.52 16.23, 0.19 13.18 C0.9 10.13, 3.07 6, 5.48 3.82 C7.88 1.64, 12.93 0.8, 14.63 0.08 C16.32 -0.64, 15.36 -0.78, 15.63 -0.51 M14.89 -0.72 C17.47 -0.98, 19.67 1.58, 22.1 3.58 C24.53 5.58, 28.56 8.41, 29.49 11.27 C30.41 14.12, 28.85 17.81, 27.67 20.72 C26.49 23.63, 25.03 27.48, 22.39 28.73 C19.75 29.98, 15.3 29.11, 11.82 28.2 C8.35 27.3, 3.38 25.8, 1.55 23.3 C-0.29 20.8, 0.37 16.36, 0.79 13.18 C1.21 10, 2.03 6.36, 4.08 4.22 C6.13 2.08, 11.41 0.99, 13.11 0.34 C14.81 -0.31, 14.29 -0.11, 14.25 0.31" stroke="#000000" stroke-width="2" fill="none"></path></g><g stroke-linecap="round" transform="translate(1036.8555047806587 728.4287465413414) rotate(0 177.37631225585938 16.11114501953125)"><path d="M8.06 0 L346.7 0 L350.22 0.5 L352.74 2.01 L354.25 4.53 L354.75 24.17 L354.25 27.69 L352.74 30.21 L350.22 31.72 L346.7 32.22 L8.06 32.22 L4.53 31.72 L2.01 30.21 L0.5 27.69 L0 24.17 L0.5 4.53 L2.01 2.01 L4.53 0.5 L8.06 0" stroke="none" stroke-width="0" fill="#fff"></path><path d="M8.06 0 M8.06 0 C76.69 0, 145.33 0, 346.7 0 M8.06 0 C96.74 0, 185.43 0, 346.7 0 M346.7 0 C352.07 0, 354.75 2.69, 354.75 8.06 M346.7 0 C352.07 0, 354.75 2.69, 354.75 8.06 M354.75 8.06 C354.75 13.03, 354.75 18.01, 354.75 24.17 M354.75 8.06 C354.75 12.24, 354.75 16.43, 354.75 24.17 M354.75 24.17 C354.75 29.54, 352.07 32.22, 346.7 32.22 M354.75 24.17 C354.75 29.54, 352.07 32.22, 346.7 32.22 M346.7 32.22 C268.48 32.22, 190.27 32.22, 8.06 32.22 M346.7 32.22 C218.94 32.22, 91.19 32.22, 8.06 32.22 M8.06 32.22 C2.69 32.22, 0 29.54, 0 24.17 M8.06 32.22 C2.69 32.22, 0 29.54, 0 24.17 M0 24.17 C0 20.2, 0 16.23, 0 8.06 M0 24.17 C0 19.89, 0 15.61, 0 8.06 M0 8.06 C0 2.69, 2.69 0, 8.06 0 M0 8.06 C0 2.69, 2.69 0, 8.06 0" stroke="#000000" stroke-width="2" fill="none"></path></g><g stroke-linecap="round" transform="translate(1052.1544244583931 733.4370168050133) rotate(0 10.6640625 10.6640625)"><path d="M1.07 4.91 C1.07 4.91, 1.07 4.91, 1.07 4.91 M1.07 4.91 C1.07 4.91, 1.07 4.91, 1.07 4.91 M2.7 15.14 C7.96 12.07, 9.18 7.03, 13.19 2.67 M3.92 14.55 C6.15 11.18, 7.93 9.88, 14.8 2.49 M5.99 20.43 C11.4 18.45, 11.94 16.65, 22.14 5.92 M7.01 22.78 C11.83 17.9, 16.64 11.51, 21.9 7.1" stroke="#000" stroke-width="1" fill="none"></path><path d="M7.61 0.64 C9.44 0.07, 12.2 0.63, 14.27 1.47 C16.34 2.31, 18.92 3.77, 20.04 5.69 C21.17 7.61, 21.38 10.61, 21.02 12.99 C20.67 15.37, 19.88 18.69, 17.92 19.97 C15.96 21.25, 11.65 20.84, 9.24 20.68 C6.83 20.52, 4.92 20.43, 3.45 19.01 C1.98 17.58, 0.83 14.49, 0.43 12.15 C0.02 9.81, -0.49 7.14, 1 4.98 C2.5 2.83, 7.45 -0.03, 9.42 -0.79 C11.39 -1.54, 12.8 0, 12.83 0.47 M7.53 1.16 C9.42 0.85, 14.06 0.91, 16.08 1.83 C18.1 2.74, 18.76 4.52, 19.67 6.65 C20.57 8.77, 22.04 12.59, 21.5 14.57 C20.96 16.56, 18.77 17.55, 16.44 18.56 C14.1 19.57, 9.68 20.96, 7.48 20.66 C5.27 20.35, 4.5 18.47, 3.23 16.74 C1.96 15.01, 0.03 12.4, -0.14 10.28 C-0.32 8.17, 0.55 5.75, 2.17 4.05 C3.8 2.35, 8.62 0.48, 9.61 0.09 C10.6 -0.31, 8.21 1.43, 8.13 1.68" stroke="#000000" stroke-width="2" fill="none"></path></g><g transform="translate(1091.3728387650337 735.9539540608727) rotate(0 144 10)"><text x="144" y="14" font-family="Virgil, Segoe UI Emoji" font-size="16px" fill="#495057" text-anchor="middle" style="white-space: pre;" direction="ltr">Search Anything (Press "/" to focus)</text></g><g stroke-linecap="round" transform="translate(1133.8770400182889 850.2586720784508) rotate(0 42.992645263671875 39.86763000488281)"><path d="M14.49 11.27 C14.49 11.27, 14.49 11.27, 14.49 11.27 M14.49 11.27 C14.49 11.27, 14.49 11.27, 14.49 11.27 M3.58 33.01 C12.53 25, 22.93 11.76, 33.71 3.49 M5.58 35.34 C14.43 23.43, 25.98 10.8, 32.73 1.29 M7.45 44.77 C17.49 34.76, 27.36 24.06, 46.48 0.32 M5.62 44.84 C19.02 31.99, 29.76 18.12, 45.8 0.33 M5.36 59.94 C23.65 40.54, 37.61 19.04, 51.79 2.46 M5.03 58.04 C25.35 36.96, 43.06 16.06, 53.29 4.5 M12.8 62.19 C24.08 48.07, 40.4 31.72, 61.62 4.68 M10.53 63.11 C28.57 42.84, 46.93 22.52, 60.29 6.72 M18.4 71.13 C26.73 57.28, 39.36 42.35, 68.93 8.34 M16.07 69.57 C32.99 51.01, 48.35 32.88, 69.93 8.93 M22.28 76.88 C39.5 54.58, 60.25 30.79, 75.02 13.9 M22.22 75.83 C41.75 53.45, 60.67 31.52, 73.78 15.54 M32.82 76.1 C45.47 57.65, 63.4 41.43, 78.7 22.59 M31.89 78.27 C40.46 66.1, 50.61 53.11, 80.03 22.15 M38.76 80.79 C50.63 64.07, 66.22 52.14, 85.08 28.46 M39.41 79.02 C56.55 59.53, 72.73 40.58, 85.22 28.57 M50.37 80.03 C60.01 68.91, 70.74 57.34, 85.63 39.16 M48.78 82.66 C60.8 67.54, 74.21 50.83, 85.4 38.64 M64.79 78.14 C69.22 68.04, 76.17 63.41, 84.6 51.08 M63.93 77.45 C69.14 71.71, 74.84 63.89, 85.47 50.36 M19.7 73.36 C19.7 73.36, 19.7 73.36, 19.7 73.36 M19.7 73.36 C19.7 73.36, 19.7 73.36, 19.7 73.36 M37.26 78.41 C24.52 67.7, 18.51 61.86, 6.4 51.76 M35.48 75.69 C25.89 68.24, 15.46 58.76, 6.88 51.2 M46.59 75.26 C34.81 65.82, 24.18 58.35, 3.66 40.87 M47.23 76.72 C33.05 65.5, 20.04 52.36, 5.43 39.91 M56.07 72.24 C40.96 60.59, 22.03 42.53, 3.37 26.56 M56.26 73.95 C37.1 56.54, 15.1 37.55, 3.42 28.02 M65.89 70.77 C44.55 53.34, 25.53 34.07, 7.91 22.07 M64.03 69.75 C53.9 59.7, 42.84 51.81, 7.35 20.38 M71.64 64.97 C53.15 51.16, 34.26 31.29, 14.54 14.22 M72.51 67.64 C58.14 52.67, 42.22 38.31, 12.67 14.85 M79.35 61.15 C57.36 41.18, 31.64 22.56, 15.47 9.13 M78.16 60.66 C63.12 48.73, 49.99 36.44, 16.92 6.96 M84.26 54.83 C62.32 37.37, 41.69 19.04, 25.65 4.24 M83.8 53.55 C60.11 35.35, 37.89 15.74, 26.43 5.01 M86.53 48.41 C65.83 30.68, 46.02 11.53, 32.65 -0.12 M87.23 47.27 C76.98 38.76, 66.05 27.94, 33.26 0.55 M88.23 35.68 C71.91 21.58, 56.45 11.02, 44.03 0.29 M87.25 36.61 C71.65 23.04, 56.91 9.62, 43.56 -1.51 M84.17 23.05 C78.33 21.27, 71.22 12.6, 65.04 8.42 M85.53 24.39 C80.31 19.64, 73.98 15.15, 64.27 6.83" stroke="#868e96" stroke-width="1" fill="none"></path><path d="M43.58 0.02 C51.42 -0.04, 61.16 4.08, 67.83 8.7 C74.51 13.32, 80.81 20.79, 83.63 27.75 C86.46 34.72, 87.15 43.26, 84.78 50.47 C82.41 57.69, 76.03 66.34, 69.41 71.05 C62.79 75.75, 53.34 78.32, 45.05 78.7 C36.76 79.08, 26.59 77.18, 19.67 73.33 C12.75 69.48, 6.67 62.63, 3.53 55.6 C0.39 48.56, -1 38.54, 0.84 31.13 C2.69 23.72, 8.53 16.28, 14.6 11.14 C20.66 6.01, 31.33 1.99, 37.22 0.29 C43.11 -1.41, 47.05 0.72, 49.94 0.92 C52.82 1.13, 54.8 1.09, 54.51 1.52 M58.17 3.29 C66.14 5.74, 75.12 12.14, 79.97 18.46 C84.82 24.78, 87.88 33.56, 87.29 41.21 C86.7 48.86, 81.37 58.52, 76.43 64.36 C71.49 70.21, 65.13 74.12, 57.66 76.29 C50.18 78.46, 39.7 79.19, 31.59 77.38 C23.48 75.58, 14.29 71.14, 9.01 65.46 C3.73 59.78, 0.38 51.14, -0.09 43.31 C-0.57 35.49, 2.02 24.91, 6.18 18.5 C10.34 12.09, 17.49 7.95, 24.88 4.87 C32.27 1.79, 45.12 0.5, 50.53 0.01 C55.93 -0.48, 55.96 1.2, 57.31 1.92 C58.66 2.63, 58.65 3.52, 58.63 4.32" stroke="#495057" stroke-width="2" fill="none"></path></g><g transform="translate(1156.7282057897733 932.2612202962242) rotate(0 25 13)"><text x="25" y="18" font-family="Virgil, Segoe UI Emoji" font-size="20px" fill="#000000" text-anchor="middle" style="white-space: pre;" direction="ltr">Name</text></g><g transform="translate(1113.8590143021431 953.7412770589195) rotate(0 78.5 10)"><text x="78.5" y="14" font-family="Virgil, Segoe UI Emoji" font-size="16px" fill="#000000" text-anchor="middle" style="white-space: pre;" direction="ltr">user.name@email.com</text></g><g stroke-linecap="round" transform="translate(789.1314098448331 183.22514270600823) rotate(0 372.7408752441406 45.88761901855467)"><path d="M-0.76 0.69 C251.41 -1.33, 503.37 -0.8, 745.7 -0.44 M0.29 0.33 C272.24 1.78, 544.47 1.82, 745.84 -0.27 M747.01 0.95 C743.85 31.76, 744.53 66.7, 746.71 93.02 M745.71 0.31 C746.91 31.89, 745.79 65.18, 744.48 92 M745.87 90.99 C481.33 91.21, 215.27 89.94, 0.18 91.12 M745.29 92.11 C573.53 88.81, 402.1 89.05, -0.16 91.58 M1.07 91.33 C1.33 65.37, 0.42 43.51, 1.37 -0.8 M0.89 92.07 C-1.65 67.76, -1.68 43.19, -0.75 0.31" stroke="#000000" stroke-width="2" fill="none"></path></g><g transform="translate(1091.0893261045987 144.57583545503167) rotate(0 32 13)"><text x="32" y="18" font-family="Virgil, Segoe UI Emoji" font-size="20px" fill="#000000" text-anchor="middle" style="white-space: pre;" direction="ltr">Footer</text></g><g transform="translate(1009.37234612413 203.07064746675042) rotate(0 28 10)"><text x="28" y="14" font-family="Virgil, Segoe UI Emoji" font-size="16px" fill="#000000" text-anchor="middle" style="white-space: pre;" direction="ltr">Privacy</text></g><g transform="translate(1115.7359935850675 202.42309497651604) rotate(0 24 10)"><text x="24" y="14" font-family="Virgil, Segoe UI Emoji" font-size="16px" fill="#000000" text-anchor="middle" style="white-space: pre;" direction="ltr">Terms</text></g><g transform="translate(1241.5138256163175 203.7990105038598) rotate(0 18.5 10)"><text x="18.5" y="14" font-family="Virgil, Segoe UI Emoji" font-size="16px" fill="#000000" text-anchor="middle" style="white-space: pre;" direction="ltr">Home</text></g><g transform="translate(1055.1691906065519 233.83105396089104) rotate(0 92 10)"><text x="92" y="14" font-family="Virgil, Segoe UI Emoji" font-size="16px" fill="#000000" text-anchor="middle" style="white-space: pre;" direction="ltr">Made by @aayush.4vedi</text></g><g stroke-linecap="round" transform="translate(805.6103265580025 1300.3797200520833) rotate(0 372.7408752441406 45.88761901855469)"><path d="M-0.57 0.74 C246.32 0.71, 492.84 0.8, 745.71 0.67 M0 0.01 C201.18 1.68, 402.48 1.48, 745.21 0.32 M746.6 -1.45 C744.49 19.77, 743.72 39.56, 746.08 92.45 M744.63 -0.51 C745.68 33.08, 746.05 67.25, 744.81 91.97 M745.91 92.43 C596.71 94.18, 446.93 95.01, 0.78 91.61 M745.28 91.81 C559.55 92.18, 373.44 92.15, -0.16 92.07 M1.46 93.07 C2.22 69.75, 1.4 50.23, -1.85 -0.96 M-0.79 92.65 C-1.01 63.26, -0.38 35.87, 0.49 0.74" stroke="#000000" stroke-width="2" fill="none"></path></g><g transform="translate(1025.8512628372994 1320.2252248128254) rotate(0 28 10)"><text x="28" y="14" font-family="Virgil, Segoe UI Emoji" font-size="16px" fill="#000000" text-anchor="middle" style="white-space: pre;" direction="ltr">Privacy</text></g><g transform="translate(1132.2149102982369 1319.577672322591) rotate(0 24 10)"><text x="24" y="14" font-family="Virgil, Segoe UI Emoji" font-size="16px" fill="#000000" text-anchor="middle" style="white-space: pre;" direction="ltr">Terms</text></g><g transform="translate(1257.9927423294869 1320.9535878499348) rotate(0 18.5 10)"><text x="18.5" y="14" font-family="Virgil, Segoe UI Emoji" font-size="16px" fill="#000000" text-anchor="middle" style="white-space: pre;" direction="ltr">Home</text></g><g transform="translate(1071.6481073197212 1350.985631306966) rotate(0 92 10)"><text x="92" y="14" font-family="Virgil, Segoe UI Emoji" font-size="16px" fill="#000000" text-anchor="middle" style="white-space: pre;" direction="ltr">Made by @aayush.4vedi</text></g><g stroke-linecap="round" transform="translate(15.614049702533805 540.6982828776044) rotate(0 372.74087524414057 45.88761901855469)"><path d="M-0.53 0.65 C164.9 0.63, 331.31 0.05, 745.63 0.59 M0.11 0.3 C203.84 0.86, 407.42 1.47, 745.11 0.09 M744.89 -0.67 C744.53 23.4, 746 51.45, 746.75 91.5 M745.11 -0.09 C745.63 35.75, 745.46 71.64, 745.17 91.2 M744.94 91.21 C476.67 90.99, 207.93 90.99, 0.47 91.83 M745.61 92.09 C512.39 88.87, 279.36 88.82, 0.06 91.6 M1.54 91.39 C0.54 57.77, 0.58 22.09, -0.3 -0.59 M-0.11 91.21 C0.09 67.54, 0.8 45.42, -0.73 -0.13" stroke="#000000" stroke-width="2" fill="none"></path></g><g transform="translate(235.85498598183068 560.5437876383465) rotate(0 28 10)"><text x="28" y="14" font-family="Virgil, Segoe UI Emoji" font-size="16px" fill="#000000" text-anchor="middle" style="white-space: pre;" direction="ltr">Privacy</text></g><g transform="translate(342.21863344276807 559.8962351481122) rotate(0 24 10)"><text x="24" y="14" font-family="Virgil, Segoe UI Emoji" font-size="16px" fill="#000000" text-anchor="middle" style="white-space: pre;" direction="ltr">Terms</text></g><g transform="translate(467.99646547401807 561.2721506754559) rotate(0 18.5 10)"><text x="18.5" y="14" font-family="Virgil, Segoe UI Emoji" font-size="16px" fill="#000000" text-anchor="middle" style="white-space: pre;" direction="ltr">Home</text></g><g transform="translate(281.65183046425255 591.3041941324872) rotate(0 92 10)"><text x="92" y="14" font-family="Virgil, Segoe UI Emoji" font-size="16px" fill="#000000" text-anchor="middle" style="white-space: pre;" direction="ltr">Made by @aayush.4vedi</text></g><g stroke-linecap="round" transform="translate(982.9241092210591 978.928527369644) rotate(0 203.05120849609375 106.33392333984364)"><path d="M-0.1 -0.79 L405.88 -1.46 L406.86 211.31 L-0.88 214.13" stroke="none" stroke-width="0" fill="#fff"></path><path d="M0.98 0.72 C159.03 1.75, 318.32 1.23, 406.34 0.1 M0.16 0.46 C136.99 -0.85, 274.29 -0.71, 406.39 -0.17 M407.58 -1.65 C403.46 81.62, 405.56 160.89, 406.79 212.69 M405.36 -0.33 C405.45 66.61, 405.2 134.62, 405.77 212.82 M406.39 213.14 C299.82 211.27, 194.15 211.82, 0.05 212.02 M405.7 212.59 C316.31 214.51, 225.92 215.4, 0.41 212.14 M-0.93 211.04 C0.66 136.96, -1.12 57.97, 1.26 1.63 M0.41 212.06 C-1.44 160.95, -0.72 108.25, 0.83 -0.6" stroke="#000000" stroke-width="2" fill="none"></path></g><g stroke-linecap="round" transform="translate(1314.9637834953526 989.6001027425134) rotate(0 29.65714518229163 8.942423502604186)"><path d="M-0.17 0.62 L58.07 -0.63 L60.95 17.08 L0.96 18.7" stroke="none" stroke-width="0" fill="#fff"></path><path d="M0.15 -0.84 C20.14 -0.73, 37.74 -0.81, 60.09 0.77 M-0.26 -0.61 C16.52 -1.37, 31.11 -0.02, 59.32 -0.03 M58.51 -0.06 C58.29 5.39, 58.21 14.87, 60.73 18.32 M58.44 0.28 C58.68 6.23, 59.43 13.76, 60.17 18.55 M58.71 17.65 C45.68 17.62, 29.47 18.75, 0.71 16.28 M60.17 17.74 C46.06 17.73, 34.18 18.67, -0.76 17.42 M1.03 16.9 C-1.46 12.83, 1.57 3.01, -1.19 1.17 M-0.16 17.41 C0.17 12.34, 0.7 6.12, -0.24 0.05" stroke="#000000" stroke-width="2" fill="none"></path></g><g transform="translate(1322.9730608391026 991.9263269333617) rotate(0 21.17045084635413 6.048700241815482)"><text x="21.170450846354154" y="9.097400483630944" font-family="Virgil, Segoe UI Emoji" font-size="9.677920386904752px" fill="#000000" text-anchor="middle" style="white-space: pre;" direction="ltr">free plan</text></g><g stroke-linecap="round"><g transform="translate(982.9238665031648 1016.0150400797529) rotate(0 203.2928263346355 0.7523193359375)"><path d="M0 0 C67.76 0.25, 338.82 1.25, 406.59 1.5 M0 0 C67.76 0.25, 338.82 1.25, 406.59 1.5" stroke="#000000" stroke-width="1" fill="none"></path></g></g><g transform="translate(991.6351295239983 988.5781097412114) rotate(0 39 10)"><text x="39" y="14" font-family="Virgil, Segoe UI Emoji" font-size="16px" fill="#000000" text-anchor="middle" style="white-space: pre;" direction="ltr">ACCOUNT</text></g><g transform="translate(1046.7325619784235 1024.57185054171) rotate(0 20.872047174989802 18.353006998697936)"><text x="20.8720471749898" y="12.353006998697936" font-family="Virgil, Segoe UI Emoji" font-size="14.394515293096413px" fill="#000000" text-anchor="middle" style="white-space: pre;" direction="ltr">Ideas</text><text x="20.8720471749898" y="30.70601399739587" font-family="Virgil, Segoe UI Emoji" font-size="14.394515293096413px" fill="#000000" text-anchor="middle" style="white-space: pre;" direction="ltr"></text></g><g transform="translate(1048.5671567049883 1065.7225901285813) rotate(0 19 5.5)"><text x="19" y="8" font-family="Virgil, Segoe UI Emoji" font-size="8.347371419271003px" fill="#000000" text-anchor="middle" style="white-space: pre;" direction="ltr">/100 limit</text></g><g transform="translate(1061.4736101555084 1041.5468393961596) rotate(0 6.5 13)"><text x="6.5" y="18" font-family="Virgil, Segoe UI Emoji" font-size="20px" fill="#000000" text-anchor="middle" style="white-space: pre;" direction="ltr">0</text></g><g transform="translate(1144.9378028638419 1023.918226601422) rotate(0 31 9)"><text x="31" y="12" font-family="Virgil, Segoe UI Emoji" font-size="14.394515293096413px" fill="#000000" text-anchor="middle" style="white-space: pre;" direction="ltr">Solutions</text></g><g transform="translate(1159.9003504154164 1065.0689661882932) rotate(0 16 5.5)"><text x="16" y="8" font-family="Virgil, Segoe UI Emoji" font-size="8.347371419271003px" fill="#000000" text-anchor="middle" style="white-space: pre;" direction="ltr">/10 limit</text></g><g transform="translate(1169.806803865936 1040.8932154558715) rotate(0 6.5 13)"><text x="6.5" y="18" font-family="Virgil, Segoe UI Emoji" font-size="20px" fill="#000000" text-anchor="middle" style="white-space: pre;" direction="ltr">0</text></g><g transform="translate(1244.130511197174 1023.460483274599) rotate(0 33 9)"><text x="33" y="12" font-family="Virgil, Segoe UI Emoji" font-size="14.394515293096413px" fill="#000000" text-anchor="middle" style="white-space: pre;" direction="ltr">Comments</text></g><g transform="translate(1262.3389897383329 1064.6112228614702) rotate(0 15 5.5)"><text x="15" y="8" font-family="Virgil, Segoe UI Emoji" font-size="8.347371419271003px" fill="#000000" text-anchor="middle" style="white-space: pre;" direction="ltr">/∞ limit</text></g><g transform="translate(1270.7883305586436 1040.4354721290485) rotate(0 6.5 13)"><text x="6.5" y="18" font-family="Virgil, Segoe UI Emoji" font-size="20px" fill="#000000" text-anchor="middle" style="white-space: pre;" direction="ltr">0</text></g><g transform="translate(1002.2300737785542 1093.6817067464199) rotate(0 183.5 20)"><text x="0" y="8.333333333333334" font-family="Virgil, Segoe UI Emoji" font-size="10.615738932291674px" fill="#000000" text-anchor="start" style="white-space: pre;" direction="ltr">IdeaHunt uses Stripe to update, change, or cancel your subscription. </text><text x="0" y="21.666666666666668" font-family="Virgil, Segoe UI Emoji" font-size="10.615738932291674px" fill="#000000" text-anchor="start" style="white-space: pre;" direction="ltr">You can also update card information and billing addresses through </text><text x="0" y="35" font-family="Virgil, Segoe UI Emoji" font-size="10.615738932291674px" fill="#000000" text-anchor="start" style="white-space: pre;" direction="ltr">the secure portal.</text></g><g stroke-linecap="round" transform="translate(1282.858375780507 1145.5217768351247) rotate(0 44.14622494420132 12.230201721191406)"><path d="M5.88 -1.69 L83.27 -0.34 L86.65 3.12 L86.43 21 L83.44 22.61 L83.04 26.12 L1.74 25.69 L1.32 19.6 L1.86 4.81 L0.76 1.54 L4.37 -1.46" stroke="none" stroke-width="0" fill="#000"></path><path d="M6.12 0 M6.12 0 C34.49 0.84, 61.48 -2.08, 82.18 0 M6.12 0 C31.83 -0.72, 55.89 0.18, 82.18 0 M82.18 0 C85.09 1.9, 87.15 3.12, 88.29 6.12 M82.18 0 C87.58 0.06, 89 2.19, 88.29 6.12 M88.29 6.12 C88.67 9.91, 89.07 13.36, 88.29 18.35 M88.29 6.12 C87.79 10.02, 88.46 13.26, 88.29 18.35 M88.29 18.35 C89.82 24.1, 85.77 23.01, 82.18 24.46 M88.29 18.35 C86.17 20.38, 86.29 26.01, 82.18 24.46 M82.18 24.46 C54.38 23.13, 31.06 23.14, 6.12 24.46 M82.18 24.46 C56.42 23.49, 32.65 23.24, 6.12 24.46 M6.12 24.46 C3.43 25.18, 0.39 23.11, 0 18.35 M6.12 24.46 C3.16 25.54, -0.64 21.72, 0 18.35 M0 18.35 C-0.99 14.49, 0.3 11.37, 0 6.12 M0 18.35 C-0.26 15.12, -0.06 11.18, 0 6.12 M0 6.12 C-1.15 0.78, 2.12 0.05, 6.12 0 M0 6.12 C0.48 1.51, 1.85 -1.79, 6.12 0" stroke="#000000" stroke-width="2" fill="none"></path></g><g transform="translate(1294.0067644967528 1152.3744009750665) rotate(0 35 6)"><text x="0" y="9" font-family="Virgil, Segoe UI Emoji" font-size="10.370421046034625px" fill="#fff" text-anchor="start" style="white-space: pre;" direction="ltr">Manage Billing</text></g><g stroke-linecap="round" transform="translate(1180.1133349183372 1144.7865473429376) rotate(0 44.14622494420132 12.230201721191406)"><path d="M6.55 -0.74 L85.09 -1.14 L89.88 3.21 L87.56 20.34 L83.21 23.35 L82.44 26.14 L2.02 22.62 L-0.03 22.82 L0.62 7.45 L1.61 0.5 L5.57 -1.56" stroke="none" stroke-width="0" fill="#fff"></path><path d="M6.12 0 M6.12 0 C33.31 -0.07, 61.79 0.82, 82.18 0 M6.12 0 C35.76 0.71, 63.09 0.79, 82.18 0 M82.18 0 C87.76 -1.9, 89.6 2.71, 88.29 6.12 M82.18 0 C86.39 1.34, 89.54 2.78, 88.29 6.12 M88.29 6.12 C88.5 7.87, 88.62 10.83, 88.29 18.35 M88.29 6.12 C87.87 9.52, 88.38 13.21, 88.29 18.35 M88.29 18.35 C88.08 21.61, 85.71 25.61, 82.18 24.46 M88.29 18.35 C87.46 23.93, 84.04 24.51, 82.18 24.46 M82.18 24.46 C60.66 24.94, 36.81 23.34, 6.12 24.46 M82.18 24.46 C58.47 24.72, 35.74 25.74, 6.12 24.46 M6.12 24.46 C1.57 23.56, 0.38 22.06, 0 18.35 M6.12 24.46 C3.26 25.69, -2.17 23.69, 0 18.35 M0 18.35 C-0.34 14.42, -0.75 13.16, 0 6.12 M0 18.35 C-0.21 14.97, -0.3 12.13, 0 6.12 M0 6.12 C1.93 2.86, 1.47 -0.09, 6.12 0 M0 6.12 C1.18 0.94, 0.82 -0.88, 6.12 0" stroke="#000000" stroke-width="2" fill="none"></path></g><g transform="translate(1201.464278973125 1150.7334911443374) rotate(0 20.5 6)"><text x="0" y="9" font-family="Virgil, Segoe UI Emoji" font-size="10.370421046034625px" fill="#000000" text-anchor="start" style="white-space: pre;" direction="ltr">Log Out</text></g><g transform="translate(303.79251376065343 675.7903213500998) rotate(0 46.5 13)"><text x="0" y="18" font-family="Virgil, Segoe UI Emoji" font-size="20px" fill="#000000" text-anchor="start" style="white-space: pre;" direction="ltr">Dahboard</text></g><g stroke-linecap="round" transform="translate(10 711.0164871215842) rotate(0 372.7408752441406 292.9622802734374)"><path d="M0.3 0.62 C202.39 -1.04, 403.05 -0.97, 746.16 -0.42 M-0.31 -0.08 C199.4 1.88, 398.57 2.52, 745.81 -0.14 M745.76 0.43 C743.6 118.5, 743.46 238.23, 745.22 585.55 M745.66 0.23 C746.45 229.79, 745.74 460.02, 745.48 585.6 M745.51 585.55 C450.88 588.53, 158.53 588.06, 0.16 586.64 M745.24 585.92 C498.37 588.37, 252.33 587.96, 0.1 586.04 M0.8 586.22 C1.72 358.62, 1.99 130.71, 0.15 -0.44 M-0.33 585.55 C0.19 351.4, 0.47 117.11, 0.36 0.06" stroke="#000000" stroke-width="2" fill="none"></path></g><g stroke-linecap="round" transform="translate(10.65661898526281 708.3923568725608) rotate(0 372.7408752441405 30.138900756835938)"><path d="M0.62 0.72 C209.17 -1.38, 418.69 -0.43, 745.06 -0.26 M-0.08 0.3 C209.54 2.64, 419.99 2.6, 745.34 -0.39 M746.56 -1.52 C745.32 12.93, 747.81 28.97, 744.55 62.13 M746.06 0.94 C744.77 18.77, 745.41 39.22, 744.66 61.22 M745.1 59.54 C576.11 61.14, 406.49 60.54, 0.71 60.53 M745.48 59.89 C479.02 58.74, 211.98 58.55, 0.11 60.63 M0.75 60.99 C0.64 47.26, 0.06 31.85, -1.1 2 M-0.95 59.47 C-0.7 43.4, -0.67 27.62, 0.15 0.32" stroke="#000000" stroke-width="2" fill="none"></path></g><g stroke-linecap="round" transform="translate(67.26161471280187 728.9050064086936) rotate(0 30.883255004882812 11.73828125)"><path d="M0 0 C0 0, 0 0, 0 0 M0 0 C0 0, 0 0, 0 0 M0.85 10.45 C2.3 7.27, 7.5 5.49, 9.57 -0.06 M-0.14 12.7 C3.54 8.17, 6.47 5.09, 10.39 0.01 M-0.73 22.89 C7.37 18.81, 10.92 12.93, 22.61 -1.81 M0.77 24.37 C5.3 18.31, 11.23 10.36, 20.99 -0.85 M11.95 23.39 C15.07 19.53, 19.45 14.65, 33.31 -1.18 M11.37 24.2 C18.35 15.42, 26.26 6.34, 31.32 0.34 M21.14 23.36 C25.73 20.02, 33.1 10.89, 42.42 0.12 M21.44 24.15 C26.25 17.81, 31.74 13.08, 41.94 -0.46 M30.4 22.62 C38.39 16.59, 45.23 8.39, 51.93 -1.54 M32.36 23.43 C39.24 15.31, 46.32 7.81, 53.51 -0.83 M44.19 23.03 C49.18 16.61, 57.8 6.44, 62.09 -0.98 M43.53 23.72 C50.06 16.16, 55.95 10.38, 63.05 -0.11 M53.78 22.93 C54.75 22.5, 57.55 18.96, 61.42 12.15 M53.4 24.09 C56.42 20.59, 58.09 18.69, 62.49 13.37" stroke="#000" stroke-width="1" fill="none"></path><path d="M1.8 -0.71 C19.4 -1.01, 41.88 -1.53, 61.11 -0.37 M0.76 -0.66 C15.02 1.06, 29 -0.23, 60.79 -0.54 M60.25 -0.59 C59.96 10.61, 61.19 16.49, 63.62 23.98 M62.71 -0.49 C61.03 6.33, 61.88 11.55, 62.71 22.75 M59.91 22.96 C39.31 21.5, 13.44 24.97, 0.62 24.63 M60.79 23.89 C39.24 22.87, 15.51 23.76, 0.89 22.87 M0.72 24.41 C1.15 15.66, 0.14 6.06, 2 -0.44 M-0.81 22.93 C0.08 15.32, 1.08 8.34, 0.32 0.43" stroke="#000000" stroke-width="2" fill="none"></path></g><g stroke-linecap="round" transform="translate(151.5129422274503 724.2977676391623) rotate(0 15.002166748046875 15.002166748046875)"><path d="M11.43 0.07 C14.33 -0.9, 18.39 0.76, 21.27 2.16 C24.15 3.56, 27.24 5.68, 28.71 8.48 C30.18 11.29, 30.84 15.89, 30.1 18.99 C29.36 22.1, 26.99 25.12, 24.27 27.12 C21.54 29.12, 17.02 31.13, 13.75 30.99 C10.47 30.85, 7.02 28.79, 4.61 26.28 C2.2 23.78, -0.19 19.28, -0.7 15.96 C-1.21 12.64, -0.91 9.09, 1.57 6.35 C4.04 3.6, 11.27 0.43, 14.16 -0.5 C17.04 -1.43, 18.78 0.35, 18.86 0.76 M13.3 -0.53 C16.05 -0.89, 19.86 0.63, 22.55 2.66 C25.23 4.69, 28.5 8.28, 29.4 11.67 C30.29 15.05, 29.26 20.16, 27.91 22.99 C26.56 25.82, 24.08 27.66, 21.28 28.64 C18.48 29.62, 14.11 29.78, 11.1 28.89 C8.09 27.99, 4.91 26.04, 3.24 23.29 C1.58 20.54, 0.76 15.63, 1.11 12.38 C1.46 9.13, 3.07 5.92, 5.34 3.79 C7.61 1.66, 13.46 0.36, 14.73 -0.4 C16 -1.16, 12.94 -0.83, 12.95 -0.76" stroke="none" stroke-width="0" fill="#000"></path><path d="M11.89 -0.1 C14.88 -1.08, 19.59 -0.33, 22.33 1.3 C25.07 2.93, 27.09 6.66, 28.34 9.69 C29.6 12.72, 30.67 16.28, 29.85 19.49 C29.03 22.69, 26.19 27.29, 23.41 28.94 C20.64 30.6, 16.67 30.23, 13.19 29.42 C9.71 28.61, 4.61 26.44, 2.53 24.09 C0.45 21.74, 0.46 18.58, 0.71 15.33 C0.97 12.08, 1.83 7.3, 4.06 4.59 C6.29 1.88, 11.89 -0.17, 14.1 -0.93 C16.3 -1.69, 17.32 -0.53, 17.3 0.03 M17.76 1.53 C20.78 1.41, 23.21 1.43, 25.28 3.56 C27.36 5.68, 30.14 10.64, 30.21 14.29 C30.28 17.95, 27.88 22.7, 25.72 25.5 C23.55 28.29, 20.14 30.69, 17.22 31.05 C14.3 31.41, 11.09 29.4, 8.19 27.63 C5.28 25.86, 0.79 23.47, -0.22 20.41 C-1.24 17.36, 0.87 12.07, 2.1 9.29 C3.33 6.51, 4.63 5.11, 7.18 3.72 C9.72 2.34, 15.55 1.69, 17.36 0.98 C19.16 0.28, 18.11 -0.36, 18 -0.5" stroke="#000000" stroke-width="2" fill="none"></path></g><g stroke-linecap="round" transform="translate(658.5289029208095 724.0143814086936) rotate(0 15.002166748046875 15.002166748046875)"><path d="M3.42 4.3 C3.42 4.3, 3.42 4.3, 3.42 4.3 M3.42 4.3 C3.42 4.3, 3.42 4.3, 3.42 4.3 M3.19 17.71 C7.39 12.59, 10.64 8.17, 14.44 2.04 M3.04 16.75 C6.41 14.23, 8.13 11.23, 15.03 3.21 M5.94 26.38 C11.63 19.7, 15.09 12.08, 25.57 2.23 M4.95 26.21 C10.16 20.96, 14.94 15.64, 24.34 5.05 M13.76 29.26 C18.61 22.86, 21.98 18.8, 28.41 9.8 M13.86 30.53 C18.04 22.72, 24.91 15.99, 29.9 11.28" stroke="#000" stroke-width="1" fill="none"></path><path d="M12.7 -0.05 C15.44 -0.69, 19.59 -0.3, 22.33 1.58 C25.06 3.46, 28.13 7.89, 29.11 11.23 C30.09 14.58, 29.24 18.67, 28.21 21.65 C27.17 24.63, 25.68 27.94, 22.89 29.11 C20.09 30.28, 14.81 29.39, 11.42 28.68 C8.03 27.97, 4.41 27.16, 2.57 24.86 C0.73 22.57, 0.26 18.28, 0.36 14.91 C0.46 11.53, 0.99 6.91, 3.17 4.59 C5.35 2.26, 11.4 1.75, 13.44 0.96 C15.48 0.17, 15.09 -0.28, 15.41 -0.15 M13.68 -0.48 C16.33 -1.34, 18.56 0.67, 21.13 2.17 C23.69 3.67, 27.49 5.73, 29.07 8.52 C30.64 11.31, 31.4 15.67, 30.56 18.91 C29.72 22.16, 27.16 26.4, 24.03 27.98 C20.91 29.56, 15.29 28.71, 11.82 28.41 C8.35 28.11, 5.39 28.33, 3.21 26.17 C1.03 24.01, -1.52 18.8, -1.26 15.43 C-1 12.05, 2.36 8.26, 4.76 5.93 C7.16 3.59, 12.02 2.3, 13.13 1.4 C14.24 0.5, 11.74 0.38, 11.4 0.54" stroke="#000000" stroke-width="2" fill="none"></path></g><g stroke-linecap="round" transform="translate(242.50689974698156 723.1866226196311) rotate(0 177.37631225585938 16.11114501953125)"><path d="M8.06 0 L346.7 0 L350.22 0.5 L352.74 2.01 L354.25 4.53 L354.75 24.17 L354.25 27.69 L352.74 30.21 L350.22 31.72 L346.7 32.22 L8.06 32.22 L4.53 31.72 L2.01 30.21 L0.5 27.69 L0 24.17 L0.5 4.53 L2.01 2.01 L4.53 0.5 L8.06 0" stroke="none" stroke-width="0" fill="#fff"></path><path d="M8.06 0 M8.06 0 C81.96 0, 155.86 0, 346.7 0 M8.06 0 C100.85 0, 193.65 0, 346.7 0 M346.7 0 C352.07 0, 354.75 2.69, 354.75 8.06 M346.7 0 C352.07 0, 354.75 2.69, 354.75 8.06 M354.75 8.06 C354.75 13.34, 354.75 18.63, 354.75 24.17 M354.75 8.06 C354.75 13.64, 354.75 19.22, 354.75 24.17 M354.75 24.17 C354.75 29.54, 352.07 32.22, 346.7 32.22 M354.75 24.17 C354.75 29.54, 352.07 32.22, 346.7 32.22 M346.7 32.22 C239.89 32.22, 133.08 32.22, 8.06 32.22 M346.7 32.22 C257.75 32.22, 168.81 32.22, 8.06 32.22 M8.06 32.22 C2.69 32.22, 0 29.54, 0 24.17 M8.06 32.22 C2.69 32.22, 0 29.54, 0 24.17 M0 24.17 C0 18.57, 0 12.98, 0 8.06 M0 24.17 C0 20.94, 0 17.71, 0 8.06 M0 8.06 C0 2.69, 2.69 0, 8.06 0 M0 8.06 C0 2.69, 2.69 0, 8.06 0" stroke="#000000" stroke-width="2" fill="none"></path></g><g stroke-linecap="round" transform="translate(257.80581942471593 728.1948928833029) rotate(0 10.6640625 10.6640625)"><path d="M0.66 5.87 C0.66 5.87, 0.66 5.87, 0.66 5.87 M0.66 5.87 C0.66 5.87, 0.66 5.87, 0.66 5.87 M4.02 14.71 C7.32 10.37, 9.87 6.13, 11.36 4.1 M4.05 15.01 C6 12.02, 8.45 9.17, 12.58 4.81 M8.43 21.84 C9.04 17.44, 14.46 13.37, 19.64 5.35 M7.47 22.4 C12.54 16.83, 17.63 11.27, 20.92 7.04" stroke="#000" stroke-width="1" fill="none"></path><path d="M7.18 -0.4 C9.26 -0.93, 12.89 0.51, 14.97 1.75 C17.05 3, 18.51 5, 19.66 7.07 C20.82 9.15, 22.44 12.34, 21.91 14.23 C21.37 16.12, 18.55 17.13, 16.43 18.42 C14.32 19.72, 11.36 21.95, 9.2 22 C7.04 22.05, 5.12 20.53, 3.47 18.75 C1.82 16.97, -0.3 13.51, -0.72 11.31 C-1.13 9.1, -0.75 7.46, 0.98 5.5 C2.72 3.54, 7.68 0.37, 9.7 -0.45 C11.71 -1.27, 13.07 0.24, 13.08 0.57 M12.44 0.66 C14.33 1.07, 17.87 1.87, 19.57 3.56 C21.28 5.25, 22.7 8.3, 22.67 10.78 C22.64 13.27, 21.43 16.94, 19.41 18.46 C17.4 19.98, 13.18 19.55, 10.6 19.92 C8.02 20.29, 5.85 21.74, 3.92 20.66 C2 19.57, -0.73 15.82, -0.97 13.44 C-1.21 11.05, 1.08 8.26, 2.46 6.36 C3.84 4.46, 5.56 3.01, 7.29 2.03 C9.01 1.04, 11.97 0.56, 12.78 0.44 C13.6 0.31, 11.89 1.25, 12.18 1.27" stroke="#000000" stroke-width="2" fill="none"></path></g><g transform="translate(297.02423373135656 730.7118301391623) rotate(0 144 10)"><text x="144" y="14" font-family="Virgil, Segoe UI Emoji" font-size="16px" fill="#495057" text-anchor="middle" style="white-space: pre;" direction="ltr">Search Anything (Press "/" to focus)</text></g><g stroke-linecap="round" transform="translate(11.26172152432531 1295.1375961303731) rotate(0 372.7408752441405 45.88761901855469)"><path d="M-0.61 -0.16 C199.71 1.61, 398.94 2.89, 746.13 -0.28 M0.14 0.21 C150.77 -2.24, 301.76 -1.74, 745.35 -0.19 M746.35 1.16 C747.6 35.04, 744.03 72.34, 745.5 90.14 M745.52 -0.47 C743.88 35.92, 745.76 71.51, 745.68 92.67 M744.99 91.77 C497.98 94.39, 252.62 93.57, 0.19 92 M745.88 91.92 C455.95 93.38, 166.4 93.26, 0.07 91.56 M-1.64 89.88 C-1.42 53.98, -0.02 17.34, 1.78 0.31 M0.25 91.5 C-0.88 60.89, -1.28 30.6, -0.12 0.15" stroke="#000000" stroke-width="2" fill="none"></path></g><g transform="translate(231.50265780362218 1314.9831008911153) rotate(0 28 10)"><text x="28" y="14" font-family="Virgil, Segoe UI Emoji" font-size="16px" fill="#000000" text-anchor="middle" style="white-space: pre;" direction="ltr">Privacy</text></g><g transform="translate(337.86630526455957 1314.335548400881) rotate(0 24 10)"><text x="24" y="14" font-family="Virgil, Segoe UI Emoji" font-size="16px" fill="#000000" text-anchor="middle" style="white-space: pre;" direction="ltr">Terms</text></g><g transform="translate(463.64413729580946 1315.7114639282247) rotate(0 18.5 10)"><text x="18.5" y="14" font-family="Virgil, Segoe UI Emoji" font-size="16px" fill="#000000" text-anchor="middle" style="white-space: pre;" direction="ltr">Home</text></g><g transform="translate(277.29950228604406 1345.743507385256) rotate(0 92 10)"><text x="92" y="14" font-family="Virgil, Segoe UI Emoji" font-size="16px" fill="#000000" text-anchor="middle" style="white-space: pre;" direction="ltr">Made by @aayush.4vedi</text></g><g stroke-linecap="round" transform="translate(12.543287797406094 769.3202241839807) rotate(0 79.561240456321 262.8630065917969)"><path d="M0 0 C44.68 0, 89.36 0, 159.12 0 M0 0 C54.82 0, 109.64 0, 159.12 0 M159.12 0 C159.12 119.19, 159.12 238.39, 159.12 525.73 M159.12 0 C159.12 164.04, 159.12 328.08, 159.12 525.73 M159.12 525.73 C111.13 525.73, 63.15 525.73, 0 525.73 M159.12 525.73 C101.76 525.73, 44.39 525.73, 0 525.73 M0 525.73 C0 329.19, 0 132.66, 0 0 M0 525.73 C0 377.24, 0 228.75, 0 0" stroke="#000000" stroke-width="2" fill="none"></path></g><g stroke-linecap="round" transform="translate(28.645398720422918 798.3456691395178) rotate(0 62.43760678013879 15.245246887206974)"><path d="M8.26 -0.21 L118.7 1.01 L123.64 3.66 L122.94 26.19 L122.21 30.03 L116.39 31.5 L5.07 28.5 L1.84 26.07 L-1.3 6.17 L1.61 1.74 L5.97 -1.03" stroke="none" stroke-width="0" fill="#000"></path><path d="M7.62 0 M7.62 0 C51.13 -0.15, 90.72 -0.04, 117.25 0 M7.62 0 C35.1 -0.46, 61.49 0.51, 117.25 0 M117.25 0 C123.37 0.57, 123.09 2.99, 124.88 7.62 M117.25 0 C123.65 1.47, 126.56 2.08, 124.88 7.62 M124.88 7.62 C124.04 14.62, 123.73 18.88, 124.88 22.87 M124.88 7.62 C124.44 13.32, 125.08 18.46, 124.88 22.87 M124.88 22.87 C124.29 27.4, 120.39 30.89, 117.25 30.49 M124.88 22.87 C126.1 29.17, 122.1 31.99, 117.25 30.49 M117.25 30.49 C93.52 30.74, 67.67 33.01, 7.62 30.49 M117.25 30.49 C86.63 29.99, 56.16 30.33, 7.62 30.49 M7.62 30.49 C1.67 31.54, 1.01 29.68, 0 22.87 M7.62 30.49 C3.08 29.73, -1.69 26.87, 0 22.87 M0 22.87 C0.96 19.27, -0.14 13.72, 0 7.62 M0 22.87 C0.54 17.97, -0.09 12.37, 0 7.62 M0 7.62 C-1.14 1.38, 2.51 -1.25, 7.62 0 M0 7.62 C0.48 3.95, 3.6 -1.41, 7.62 0" stroke="#000000" stroke-width="2" fill="none"></path></g><g transform="translate(34.57397949396034 805.811716944824) rotate(0 57.342459869384896 8.133682250976562)"><text x="0" y="11.267364501953153" font-family="Virgil, Segoe UI Emoji" font-size="13.013891601562515px" fill="#fff" text-anchor="start" style="white-space: pre;" direction="ltr">+ Post Your Idea</text></g><g transform="translate(26.75677998860624 1041.7982754816617) rotate(0 58.47772216796872 9.50857271023881)"><text x="0" y="13.017145420477636" font-family="Virgil, Segoe UI Emoji" font-size="15.213716336382106px" fill="#000000" text-anchor="start" style="white-space: pre;" direction="ltr">Search by Tags</text></g><g stroke-linecap="round" transform="translate(29.011947631835312 1064.905691898233) rotate(0 61.006937662760436 14.24913533528644)"><path d="M0 0 C43.25 0, 86.5 0, 122.01 0 M0 0 C34.42 0, 68.85 0, 122.01 0 M122.01 0 C122.01 8.65, 122.01 17.3, 122.01 28.5 M122.01 0 C122.01 8.32, 122.01 16.65, 122.01 28.5 M122.01 28.5 C87.01 28.5, 52.01 28.5, 0 28.5 M122.01 28.5 C81.12 28.5, 40.23 28.5, 0 28.5 M0 28.5 C0 17.27, 0 6.04, 0 0 M0 28.5 C0 21.77, 0 15.05, 0 0" stroke="#000000" stroke-width="1" fill="none"></path></g><g stroke-linecap="round"><g transform="translate(139.57667742297912 1073.01044857141) rotate(0 1.6172322723969046 6.520548502604186)"><path d="M0 0 C0.54 2.17, 2.7 10.87, 3.23 13.04 M0 0 C0.54 2.17, 2.7 10.87, 3.23 13.04" stroke="#000000" stroke-width="1" fill="none"></path></g><g transform="translate(139.57667742297912 1073.01044857141) rotate(0 1.6172322723969046 6.520548502604186)"><path d="M-0.52 7.47 C0.51 8.99, 1.53 10.5, 3.23 13.04 M-0.52 7.47 C0.76 9.36, 2.03 11.25, 3.23 13.04" stroke="#000000" stroke-width="1" fill="none"></path></g><g transform="translate(139.57667742297912 1073.01044857141) rotate(0 1.6172322723969046 6.520548502604186)"><path d="M3.94 6.36 C3.75 8.18, 3.56 10, 3.23 13.04 M3.94 6.36 C3.7 8.62, 3.46 10.89, 3.23 13.04" stroke="#000000" stroke-width="1" fill="none"></path></g></g><g transform="translate(30.22290547688732 1103.585778855963) rotate(0 34.5 9.5)"><text x="0" y="13" font-family="Virgil, Segoe UI Emoji" font-size="15.213716336382106px" fill="#000000" text-anchor="start" style="white-space: pre;" direction="ltr">Difficulty</text></g><g stroke-linecap="round" transform="translate(27.218571980793456 1131.6163445675043) rotate(0 22.977437337239593 11.142934163411383)"><path d="M5.57 0 M5.57 0 C15.31 0, 25.06 0, 40.38 0 M5.57 0 C13.38 0, 21.18 0, 40.38 0 M40.38 0 C44.1 0, 45.95 1.86, 45.95 5.57 M40.38 0 C44.1 0, 45.95 1.86, 45.95 5.57 M45.95 5.57 C45.95 8.96, 45.95 12.35, 45.95 16.71 M45.95 5.57 C45.95 8.84, 45.95 12.11, 45.95 16.71 M45.95 16.71 C45.95 20.43, 44.1 22.29, 40.38 22.29 M45.95 16.71 C45.95 20.43, 44.1 22.29, 40.38 22.29 M40.38 22.29 C32.61 22.29, 24.83 22.29, 5.57 22.29 M40.38 22.29 C27.37 22.29, 14.36 22.29, 5.57 22.29 M5.57 22.29 C1.86 22.29, 0 20.43, 0 16.71 M5.57 22.29 C1.86 22.29, 0 20.43, 0 16.71 M0 16.71 C0 12.86, 0 9, 0 5.57 M0 16.71 C0 13.89, 0 11.07, 0 5.57 M0 5.57 C0 1.86, 1.86 0, 5.57 0 M0 5.57 C0 1.86, 1.86 0, 5.57 0" stroke="#000000" stroke-width="1" fill="none"></path></g><g stroke-linecap="round" transform="translate(74.49052429199133 1131.4409803910721) rotate(0 22.977437337239564 11.142934163411383)"><path d="M5.57 0 L42.82 0.35 L45.61 3.13 L45.61 19.15 L42.82 21.94 L40.38 22.29 L3.13 21.94 L0.35 19.15 L0 5.57 L1.39 1.39 L5.57 0" stroke="none" stroke-width="0" fill="#000"></path><path d="M5.57 0 M5.57 0 C14.25 0, 22.94 0, 40.38 0 M5.57 0 C18.44 0, 31.3 0, 40.38 0 M40.38 0 C44.1 0, 45.95 1.86, 45.95 5.57 M40.38 0 C44.1 0, 45.95 1.86, 45.95 5.57 M45.95 5.57 C45.95 8.01, 45.95 10.44, 45.95 16.71 M45.95 5.57 C45.95 8.48, 45.95 11.38, 45.95 16.71 M45.95 16.71 C45.95 20.43, 44.1 22.29, 40.38 22.29 M45.95 16.71 C45.95 20.43, 44.1 22.29, 40.38 22.29 M40.38 22.29 C27.56 22.29, 14.74 22.29, 5.57 22.29 M40.38 22.29 C28.47 22.29, 16.56 22.29, 5.57 22.29 M5.57 22.29 C1.86 22.29, 0 20.43, 0 16.71 M5.57 22.29 C1.86 22.29, 0 20.43, 0 16.71 M0 16.71 C0 14.3, 0 11.88, 0 5.57 M0 16.71 C0 12.54, 0 8.36, 0 5.57 M0 5.57 C0 1.86, 1.86 0, 5.57 0 M0 5.57 C0 1.86, 1.86 0, 5.57 0" stroke="#000000" stroke-width="1" fill="none"></path></g><g stroke-linecap="round" transform="translate(121.70467631022024 1131.291098392374) rotate(0 22.97743733723962 11.142934163411383)"><path d="M5.57 0 M5.57 0 C14.23 0, 22.89 0, 40.38 0 M5.57 0 C15.07 0, 24.58 0, 40.38 0 M40.38 0 C44.1 0, 45.95 1.86, 45.95 5.57 M40.38 0 C44.1 0, 45.95 1.86, 45.95 5.57 M45.95 5.57 C45.95 9.47, 45.95 13.38, 45.95 16.71 M45.95 5.57 C45.95 9.62, 45.95 13.67, 45.95 16.71 M45.95 16.71 C45.95 20.43, 44.1 22.29, 40.38 22.29 M45.95 16.71 C45.95 20.43, 44.1 22.29, 40.38 22.29 M40.38 22.29 C30.14 22.29, 19.9 22.29, 5.57 22.29 M40.38 22.29 C32.92 22.29, 25.45 22.29, 5.57 22.29 M5.57 22.29 C1.86 22.29, 0 20.43, 0 16.71 M5.57 22.29 C1.86 22.29, 0 20.43, 0 16.71 M0 16.71 C0 13.69, 0 10.67, 0 5.57 M0 16.71 C0 12.64, 0 8.56, 0 5.57 M0 5.57 C0 1.86, 1.86 0, 5.57 0 M0 5.57 C0 1.86, 1.86 0, 5.57 0" stroke="#000000" stroke-width="1" fill="none"></path></g><g transform="translate(33.2359466552727 1136.191000736124) rotate(0 14.739283243815237 7.7575174967448675)"><text x="14.739283243815244" y="10.515034993489735" font-family="Virgil, Segoe UI Emoji" font-size="12.412027994791787px" fill="#000000" text-anchor="middle" style="white-space: pre;" direction="ltr">Easy</text></g><g transform="translate(130.67895507812403 1135.3119520707592) rotate(0 14 8)"><text x="14" y="11" font-family="Virgil, Segoe UI Emoji" font-size="12.412027994791787px" fill="#000000" text-anchor="middle" style="white-space: pre;" direction="ltr">Hard</text></g><g transform="translate(76.20005798339758 1134.2760837439364) rotate(0 20.5 8)"><text x="20.5" y="11" font-family="Virgil, Segoe UI Emoji" font-size="12.412027994791787px" fill="#fff" text-anchor="middle" style="white-space: pre;" direction="ltr">Medium</text></g><g transform="translate(31.14877827962175 1163.9754818777492) rotate(0 70.50000000000003 9.5)"><text x="0" y="13" font-family="Virgil, Segoe UI Emoji" font-size="15.213716336382106px" fill="#000000" text-anchor="start" style="white-space: pre;" direction="ltr">Marked as Solved </text></g><g stroke-linecap="round" transform="translate(27.924555460611202 1192.0060475892901) rotate(0 22.977437337239593 11.142934163411383)"><path d="M5.57 0 M5.57 0 C15.48 0, 25.4 0, 40.38 0 M5.57 0 C12.66 0, 19.75 0, 40.38 0 M40.38 0 C44.1 0, 45.95 1.86, 45.95 5.57 M40.38 0 C44.1 0, 45.95 1.86, 45.95 5.57 M45.95 5.57 C45.95 8.05, 45.95 10.53, 45.95 16.71 M45.95 5.57 C45.95 9.73, 45.95 13.89, 45.95 16.71 M45.95 16.71 C45.95 20.43, 44.1 22.29, 40.38 22.29 M45.95 16.71 C45.95 20.43, 44.1 22.29, 40.38 22.29 M40.38 22.29 C27.66 22.29, 14.93 22.29, 5.57 22.29 M40.38 22.29 C32.43 22.29, 24.49 22.29, 5.57 22.29 M5.57 22.29 C1.86 22.29, 0 20.43, 0 16.71 M5.57 22.29 C1.86 22.29, 0 20.43, 0 16.71 M0 16.71 C0 12.5, 0 8.28, 0 5.57 M0 16.71 C0 13.37, 0 10.03, 0 5.57 M0 5.57 C0 1.86, 1.86 0, 5.57 0 M0 5.57 C0 1.86, 1.86 0, 5.57 0" stroke="#000000" stroke-width="1" fill="none"></path></g><g stroke-linecap="round" transform="translate(75.19650777180908 1191.830683412858) rotate(0 31.319437662760436 11.142934163411383)"><path d="M5.57 0 L59.5 0.35 L62.29 3.13 L62.29 19.15 L59.5 21.94 L57.07 22.29 L3.13 21.94 L0.35 19.15 L0 5.57 L1.39 1.39 L5.57 0" stroke="none" stroke-width="0" fill="#000"></path><path d="M5.57 0 M5.57 0 C24.33 0, 43.08 0, 57.07 0 M5.57 0 C19.57 0, 33.56 0, 57.07 0 M57.07 0 C60.78 0, 62.64 1.86, 62.64 5.57 M57.07 0 C60.78 0, 62.64 1.86, 62.64 5.57 M62.64 5.57 C62.64 8.89, 62.64 12.21, 62.64 16.71 M62.64 5.57 C62.64 8.41, 62.64 11.25, 62.64 16.71 M62.64 16.71 C62.64 20.43, 60.78 22.29, 57.07 22.29 M62.64 16.71 C62.64 20.43, 60.78 22.29, 57.07 22.29 M57.07 22.29 C39.15 22.29, 21.23 22.29, 5.57 22.29 M57.07 22.29 C45.55 22.29, 34.03 22.29, 5.57 22.29 M5.57 22.29 C1.86 22.29, 0 20.43, 0 16.71 M5.57 22.29 C1.86 22.29, 0 20.43, 0 16.71 M0 16.71 C0 13.15, 0 9.59, 0 5.57 M0 16.71 C0 13.9, 0 11.09, 0 5.57 M0 5.57 C0 1.86, 1.86 0, 5.57 0 M0 5.57 C0 1.86, 1.86 0, 5.57 0" stroke="#000000" stroke-width="1" fill="none"></path></g><g transform="translate(29.66181945800713 1195.5708567527013) rotate(0 19 8)"><text x="19" y="11" font-family="Virgil, Segoe UI Emoji" font-size="12.412027994791787px" fill="#000000" text-anchor="middle" style="white-space: pre;" direction="ltr">Solved</text></g><g transform="translate(77.69770812988202 1194.6657867657223) rotate(0 29.50000000000003 8)"><text x="29.5" y="11" font-family="Virgil, Segoe UI Emoji" font-size="12.412027994791787px" fill="#fff" text-anchor="middle" style="white-space: pre;" direction="ltr">Unsolvedd</text></g><g stroke-linecap="round" transform="translate(30.615544637043286 1238.980358239379) rotate(0 6.417826334635407 6.4192708333332575)"><path d="M3.21 0 L9.63 0 L12.03 0.8 L12.84 3.21 L12.84 9.63 L12.03 12.04 L9.63 12.84 L3.21 12.84 L0.8 12.04 L0 9.63 L0.2 1.81 L0.8 0.8 L3.21 0" stroke="none" stroke-width="0" fill="#fff"></path><path d="M3.21 0 M3.21 0 C4.69 0, 6.18 0, 9.63 0 M3.21 0 C4.58 0, 5.96 0, 9.63 0 M9.63 0 C11.77 0, 12.84 1.07, 12.84 3.21 M9.63 0 C11.77 0, 12.84 1.07, 12.84 3.21 M12.84 3.21 C12.84 5.73, 12.84 8.25, 12.84 9.63 M12.84 3.21 C12.84 5.7, 12.84 8.2, 12.84 9.63 M12.84 9.63 C12.84 11.77, 11.77 12.84, 9.63 12.84 M12.84 9.63 C12.84 11.77, 11.77 12.84, 9.63 12.84 M9.63 12.84 C7.32 12.84, 5.02 12.84, 3.21 12.84 M9.63 12.84 C7.31 12.84, 4.99 12.84, 3.21 12.84 M3.21 12.84 C1.07 12.84, 0 11.77, 0 9.63 M3.21 12.84 C1.07 12.84, 0 11.77, 0 9.63 M0 9.63 C0 7.57, 0 5.51, 0 3.21 M0 9.63 C0 7.88, 0 6.14, 0 3.21 M0 3.21 C0 1.07, 1.07 0, 3.21 0 M0 3.21 C0 1.07, 1.07 0, 3.21 0" stroke="#000" stroke-width="1" fill="none"></path></g><g transform="translate(52.36900329589747 1239.6238518917226) rotate(0 52.10973478618479 6.8755900065104925)"><text x="0" y="9.751180013020987" font-family="Virgil, Segoe UI Emoji" font-size="11.010871158348865px" fill="#000000" text-anchor="start" style="white-space: pre;" direction="ltr">Show my favourites</text></g><g stroke-linecap="round" transform="translate(187.16616566975785 782.1821035905347) rotate(0 276.1559600830077 62.76258850097656)"><path d="M0 0 L552.31 0 L552.31 125.53 L0 125.53" stroke="none" stroke-width="0" fill="#fff"></path><path d="M0 0 C174.03 0, 348.06 0, 552.31 0 M0 0 C190.65 0, 381.29 0, 552.31 0 M552.31 0 C552.31 38.2, 552.31 76.4, 552.31 125.53 M552.31 0 C552.31 25.21, 552.31 50.42, 552.31 125.53 M552.31 125.53 C431.38 125.53, 310.45 125.53, 0 125.53 M552.31 125.53 C401.96 125.53, 251.62 125.53, 0 125.53 M0 125.53 C0 79.71, 0 33.9, 0 0 M0 125.53 C0 86.07, 0 46.61, 0 0" stroke="#000" stroke-width="1" fill="none"></path></g><g transform="translate(251.51442972818876 789.7421958807771) rotate(0 112 13)"><text x="112" y="18" font-family="Virgil, Segoe UI Emoji" font-size="20px" fill="#000" text-anchor="middle" style="white-space: pre;" direction="ltr">Idea Summary or Title</text></g><g stroke-linecap="round" transform="translate(649.5510610258495 790.0198043184065) rotate(0 25.531875578966947 9.866438446793325)"><path d="M6.22 -1.15 L48.41 -1.41 L52.02 2.43 L48.99 16.61 L45.77 20.64 L1.9 21.39 L1.72 16.31 L0.28 6.43 L1.8 0 L5.11 1.5" stroke="none" stroke-width="0" fill="#000"></path><path d="M4.93 0 M4.93 0 C17.71 0.3, 28.58 -0.49, 46.13 0 M4.93 0 C15.32 -1.3, 26.33 -1.09, 46.13 0 M46.13 0 C49.35 0.58, 51.54 1.83, 51.06 4.93 M46.13 0 C51.52 1.09, 52.88 2.21, 51.06 4.93 M51.06 4.93 C51.15 6.63, 50.67 9.04, 51.06 14.8 M51.06 4.93 C51.34 7.19, 50.93 9.42, 51.06 14.8 M51.06 14.8 C50.59 17.75, 49.21 18.88, 46.13 19.73 M51.06 14.8 C49.7 18.39, 49.27 21.94, 46.13 19.73 M46.13 19.73 C29.45 21.39, 16.76 18.61, 4.93 19.73 M46.13 19.73 C35.59 20.1, 26.04 19.4, 4.93 19.73 M4.93 19.73 C3.26 19.04, 1.84 20.01, 0 14.8 M4.93 19.73 C0.88 18.65, 1.21 19.18, 0 14.8 M0 14.8 C0.76 12.91, 0.3 10.21, 0 4.93 M0 14.8 C0.08 10.99, 0 7.79, 0 4.93 M0 4.93 C1.71 2.84, -0.04 0.99, 4.93 0 M0 4.93 C1.44 0.06, 0.7 1.92, 4.93 0" stroke="#000000" stroke-width="2" fill="none"></path></g><g transform="translate(660.6027241951642 794.7233679323514) rotate(0 17 11)"><text x="0" y="8" font-family="Virgil, Segoe UI Emoji" font-size="8.366102477340284px" fill="#fff" text-anchor="start" style="white-space: pre;" direction="ltr">Unsolved</text><text x="0" y="19" font-family="Virgil, Segoe UI Emoji" font-size="8.366102477340284px" fill="#fff" text-anchor="start" style="white-space: pre;" direction="ltr"></text></g><g transform="translate(252.14301554361856 826.3708302712756) rotate(0 232.99999999999994 15.5)"><text x="0" y="11.5" font-family="Virgil, Segoe UI Emoji" font-size="12.968430378226254px" fill="#000" text-anchor="start" style="white-space: pre;" direction="ltr">description ..Lorem ipsum dolor sit amet, consectetur adipiscing elit, sed </text><text x="0" y="27" font-family="Virgil, Segoe UI Emoji" font-size="12.968430378226254px" fill="#000" text-anchor="start" style="white-space: pre;" direction="ltr">do...lorem ipsum dolor sit amet, consectetur adipiscing elit, sed do...</text></g><g transform="translate(255.90935262044144 880.6022881696716) rotate(0 122.57276916503906 8.662386513430306)"><text x="0" y="11.32477302686063" font-family="Virgil, Segoe UI Emoji" font-size="13.85981842148852px" fill="#000" text-anchor="start" style="white-space: pre;" direction="ltr">Submitted by &lt;username&gt; on &lt;date&gt;</text></g><g transform="translate(636.5228068033841 879.6008176899946) rotate(0 43.310694376627566 9.02306132846411)"><text x="0" y="12.046122656928173" font-family="Virgil, Segoe UI Emoji" font-size="14.436898125542537px" fill="#000" text-anchor="start" style="white-space: pre;" direction="ltr">15 Comments</text></g><g stroke-linecap="round"><g transform="translate(640.7654622395821 900.6714357896313) rotate(0 40.04631042480469 -0.18628438313817242)" fill-rule="evenodd"><path d="M0 0 L35.49 -0.17 L0 0" stroke="none" stroke-width="0" fill="#fff" fill-rule="evenodd"></path><path d="M0 0 C13.35 -0.06, 80.09 -0.37, 80.09 -0.37 C80.09 -0.37, 13.35 -0.06, 0 0 M0 0 C13.35 -0.06, 80.09 -0.37, 80.09 -0.37 C80.09 -0.37, 13.35 -0.06, 0 0" stroke="#000" stroke-width="2" fill="none"></path></g></g><g stroke-linecap="round" transform="translate(206.72682317097843 802.8798358706571) rotate(0 8.682365417480469 8.682365417480469)"><path d="M8.68 0 C10.45 -0.11, 12.84 0.84, 14.26 2.03 C15.69 3.23, 16.91 5.34, 17.23 7.17 C17.56 9.01, 17.13 11.41, 16.2 13.02 C15.27 14.63, 13.4 16.2, 11.65 16.84 C9.9 17.48, 7.46 17.48, 5.71 16.84 C3.96 16.2, 2.09 14.63, 1.16 13.02 C0.23 11.41, -0.19 9.01, 0.13 7.17 C0.45 5.34, 1.68 3.23, 3.1 2.03 C4.53 0.84, 7.75 0.31, 8.68 0 C9.61 -0.31, 8.68 0.03, 8.68 0.17 M8.68 0 C10.45 -0.11, 12.84 0.84, 14.26 2.03 C15.69 3.23, 16.91 5.34, 17.23 7.17 C17.56 9.01, 17.13 11.41, 16.2 13.02 C15.27 14.63, 13.4 16.2, 11.65 16.84 C9.9 17.48, 7.46 17.48, 5.71 16.84 C3.96 16.2, 2.09 14.63, 1.16 13.02 C0.23 11.41, -0.19 9.01, 0.13 7.17 C0.45 5.34, 1.68 3.23, 3.1 2.03 C4.53 0.84, 7.75 0.31, 8.68 0 C9.61 -0.31, 8.68 0.03, 8.68 0.17" stroke="none" stroke-width="0" fill="#000"></path><path d="M8.68 0 C10.45 -0.11, 12.84 0.84, 14.26 2.03 C15.69 3.23, 16.91 5.34, 17.23 7.17 C17.56 9.01, 17.13 11.41, 16.2 13.02 C15.27 14.63, 13.4 16.2, 11.65 16.84 C9.9 17.48, 7.46 17.48, 5.71 16.84 C3.96 16.2, 2.09 14.63, 1.16 13.02 C0.23 11.41, -0.19 9.01, 0.13 7.17 C0.45 5.34, 1.68 3.23, 3.1 2.03 C4.53 0.84, 7.75 0.31, 8.68 0 C9.61 -0.31, 8.68 0.03, 8.68 0.17 M8.68 0 C10.45 -0.11, 12.84 0.84, 14.26 2.03 C15.69 3.23, 16.91 5.34, 17.23 7.17 C17.56 9.01, 17.13 11.41, 16.2 13.02 C15.27 14.63, 13.4 16.2, 11.65 16.84 C9.9 17.48, 7.46 17.48, 5.71 16.84 C3.96 16.2, 2.09 14.63, 1.16 13.02 C0.23 11.41, -0.19 9.01, 0.13 7.17 C0.45 5.34, 1.68 3.23, 3.1 2.03 C4.53 0.84, 7.75 0.31, 8.68 0 C9.61 -0.31, 8.68 0.03, 8.68 0.17" stroke="#000" stroke-width="2" fill="none"></path></g><g stroke-linecap="round"><g transform="translate(215.74559131592758 817.4584438690207) rotate(0 -0.053574567764940184 -6.192781975018818)"><path d="M0 0 C-0.02 -2.06, -0.09 -10.32, -0.11 -12.39 M0 0 C-0.02 -2.06, -0.09 -10.32, -0.11 -12.39" stroke="#fff" stroke-width="2" fill="none"></path></g><g transform="translate(215.74559131592758 817.4584438690207) rotate(0 -0.053574567764940184 -6.192781975018818)"><path d="M2.06 -6.58 C1.45 -8.22, 0.84 -9.86, -0.11 -12.39 M2.06 -6.58 C1.39 -8.38, 0.72 -10.17, -0.11 -12.39" stroke="#fff" stroke-width="2" fill="none"></path></g><g transform="translate(215.74559131592758 817.4584438690207) rotate(0 -0.053574567764940184 -6.192781975018818)"><path d="M-2.17 -6.55 C-1.59 -8.2, -1.01 -9.85, -0.11 -12.39 M-2.17 -6.55 C-1.54 -8.35, -0.9 -10.16, -0.11 -12.39" stroke="#fff" stroke-width="2" fill="none"></path></g></g><g transform="translate(207.36477668305866 824.1263231835222) rotate(0 7.234569452222729 6.890066144974014)"><text x="0" y="9.780132289948073" font-family="Virgil, Segoe UI Emoji" font-size="11.024105831958462px" fill="#000" text-anchor="start" style="white-space: pre;" direction="ltr">25</text></g><g stroke-linecap="round" transform="translate(208.8515841166165 847.9728588576912) rotate(0 8.682365417480469 8.682365417480469)"><path d="M8.68 0 C10.45 -0.11, 12.84 0.84, 14.26 2.03 C15.69 3.23, 16.91 5.34, 17.23 7.17 C17.56 9.01, 17.13 11.41, 16.2 13.02 C15.27 14.63, 13.4 16.2, 11.65 16.84 C9.9 17.48, 7.46 17.48, 5.71 16.84 C3.96 16.2, 2.09 14.63, 1.16 13.02 C0.23 11.41, -0.19 9.01, 0.13 7.17 C0.45 5.34, 1.68 3.23, 3.1 2.03 C4.53 0.84, 7.75 0.31, 8.68 0 C9.61 -0.31, 8.68 0.03, 8.68 0.17 M8.68 0 C10.45 -0.11, 12.84 0.84, 14.26 2.03 C15.69 3.23, 16.91 5.34, 17.23 7.17 C17.56 9.01, 17.13 11.41, 16.2 13.02 C15.27 14.63, 13.4 16.2, 11.65 16.84 C9.9 17.48, 7.46 17.48, 5.71 16.84 C3.96 16.2, 2.09 14.63, 1.16 13.02 C0.23 11.41, -0.19 9.01, 0.13 7.17 C0.45 5.34, 1.68 3.23, 3.1 2.03 C4.53 0.84, 7.75 0.31, 8.68 0 C9.61 -0.31, 8.68 0.03, 8.68 0.17" stroke="none" stroke-width="0" fill="#fff"></path><path d="M8.68 0 C10.45 -0.11, 12.84 0.84, 14.26 2.03 C15.69 3.23, 16.91 5.34, 17.23 7.17 C17.56 9.01, 17.13 11.41, 16.2 13.02 C15.27 14.63, 13.4 16.2, 11.65 16.84 C9.9 17.48, 7.46 17.48, 5.71 16.84 C3.96 16.2, 2.09 14.63, 1.16 13.02 C0.23 11.41, -0.19 9.01, 0.13 7.17 C0.45 5.34, 1.68 3.23, 3.1 2.03 C4.53 0.84, 7.75 0.31, 8.68 0 C9.61 -0.31, 8.68 0.03, 8.68 0.17 M8.68 0 C10.45 -0.11, 12.84 0.84, 14.26 2.03 C15.69 3.23, 16.91 5.34, 17.23 7.17 C17.56 9.01, 17.13 11.41, 16.2 13.02 C15.27 14.63, 13.4 16.2, 11.65 16.84 C9.9 17.48, 7.46 17.48, 5.71 16.84 C3.96 16.2, 2.09 14.63, 1.16 13.02 C0.23 11.41, -0.19 9.01, 0.13 7.17 C0.45 5.34, 1.68 3.23, 3.1 2.03 C4.53 0.84, 7.75 0.31, 8.68 0 C9.61 -0.31, 8.68 0.03, 8.68 0.17" stroke="#000" stroke-width="2" fill="none"></path></g><g stroke-linecap="round"><g transform="translate(217.6292103134228 863.4097299393633) rotate(172.5772367751129 0.21775337370303305 -6.3471062562458656)"><path d="M0 0 C0.07 -2.12, 0.36 -10.58, 0.44 -12.69 M0 0 C0.07 -2.12, 0.36 -10.58, 0.44 -12.69" stroke="#000" stroke-width="2" fill="none"></path></g><g transform="translate(217.6292103134228 863.4097299393633) rotate(172.5772367751129 0.21775337370303305 -6.3471062562458656)"><path d="M2.4 -6.66 C1.9 -8.2, 1.39 -9.75, 0.44 -12.69 M2.4 -6.66 C1.62 -9.05, 0.84 -11.44, 0.44 -12.69" stroke="#000" stroke-width="2" fill="none"></path></g><g transform="translate(217.6292103134228 863.4097299393633) rotate(172.5772367751129 0.21775337370303305 -6.3471062562458656)"><path d="M-1.94 -6.8 C-1.33 -8.31, -0.72 -9.82, 0.44 -12.69 M-1.94 -6.8 C-1 -9.14, -0.06 -11.47, 0.44 -12.69" stroke="#000" stroke-width="2" fill="none"></path></g></g><g transform="translate(211.01671353201704 870.025016590885) rotate(0 4 14.5)"><text x="0" y="9.5" font-family="Virgil, Segoe UI Emoji" font-size="11.024105831958462px" fill="#000" text-anchor="start" style="white-space: pre;" direction="ltr">2</text><text x="0" y="24" font-family="Virgil, Segoe UI Emoji" font-size="11.024105831958462px" fill="#000" text-anchor="start" style="white-space: pre;" direction="ltr"></text></g><g stroke-linecap="round" transform="translate(186.24060567219925 923.3507360978589) rotate(0 276.1559600830077 62.76258850097656)"><path d="M0 0 L552.31 0 L552.31 125.53 L0 125.53" stroke="none" stroke-width="0" fill="#fff"></path><path d="M0 0 C154.41 0, 308.82 0, 552.31 0 M0 0 C169.45 0, 338.89 0, 552.31 0 M552.31 0 C552.31 38.83, 552.31 77.66, 552.31 125.53 M552.31 0 C552.31 27.56, 552.31 55.13, 552.31 125.53 M552.31 125.53 C333.33 125.53, 114.34 125.53, 0 125.53 M552.31 125.53 C400.98 125.53, 249.65 125.53, 0 125.53 M0 125.53 C0 87.08, 0 48.63, 0 0 M0 125.53 C0 98.46, 0 71.39, 0 0" stroke="#000" stroke-width="1" fill="none"></path></g><g transform="translate(250.58886973063017 930.9108283881013) rotate(0 112 13)"><text x="112" y="18" font-family="Virgil, Segoe UI Emoji" font-size="20px" fill="#000" text-anchor="middle" style="white-space: pre;" direction="ltr">Idea Summary or Title</text></g><g stroke-linecap="round" transform="translate(648.625501028291 931.1884368257307) rotate(0 25.531875578966947 9.866438446793325)"><path d="M2.96 1.73 L49.83 1.01 L49.44 3.8 L51.79 15.27 L47.37 19.87 L1.81 19.42 L-0.5 16.29 L1.55 6.46 L0.24 3.12 L4.48 1.67" stroke="none" stroke-width="0" fill="#000"></path><path d="M4.93 0 M4.93 0 C15.86 -1.01, 31.53 -1.26, 46.13 0 M4.93 0 C16.61 -0.66, 29.81 0.1, 46.13 0 M46.13 0 C50.54 0.62, 50.2 2.85, 51.06 4.93 M46.13 0 C49.8 0.34, 49.17 2.15, 51.06 4.93 M51.06 4.93 C51.91 8.8, 49.99 13.28, 51.06 14.8 M51.06 4.93 C50.76 8.17, 51.61 12.06, 51.06 14.8 M51.06 14.8 C52.76 17.24, 48.4 19.72, 46.13 19.73 M51.06 14.8 C51.14 18.2, 47.48 21.3, 46.13 19.73 M46.13 19.73 C34.04 20.87, 22.77 20.41, 4.93 19.73 M46.13 19.73 C35.85 18.53, 23.6 18.83, 4.93 19.73 M4.93 19.73 C3.18 21.2, 1.88 17.32, 0 14.8 M4.93 19.73 C3.06 19.13, -1.58 19.69, 0 14.8 M0 14.8 C-0.55 11.41, -0.83 7.93, 0 4.93 M0 14.8 C0.3 11.83, -0.26 9.59, 0 4.93 M0 4.93 C1.33 0.67, 0.36 -0.8, 4.93 0 M0 4.93 C-1.3 3.38, 2.23 0.51, 4.93 0" stroke="#000000" stroke-width="2" fill="none"></path></g><g transform="translate(659.6771641976056 935.8920004396756) rotate(0 17 11)"><text x="0" y="8" font-family="Virgil, Segoe UI Emoji" font-size="8.366102477340284px" fill="#fff" text-anchor="start" style="white-space: pre;" direction="ltr">Unsolved</text><text x="0" y="19" font-family="Virgil, Segoe UI Emoji" font-size="8.366102477340284px" fill="#fff" text-anchor="start" style="white-space: pre;" direction="ltr"></text></g><g transform="translate(251.21745554605997 967.5394627785998) rotate(0 232.99999999999994 15.5)"><text x="0" y="11.5" font-family="Virgil, Segoe UI Emoji" font-size="12.968430378226254px" fill="#000" text-anchor="start" style="white-space: pre;" direction="ltr">description ..Lorem ipsum dolor sit amet, consectetur adipiscing elit, sed </text><text x="0" y="27" font-family="Virgil, Segoe UI Emoji" font-size="12.968430378226254px" fill="#000" text-anchor="start" style="white-space: pre;" direction="ltr">do...lorem ipsum dolor sit amet, consectetur adipiscing elit, sed do...</text></g><g transform="translate(254.98379262288285 1021.7709206769958) rotate(0 122.57276916503906 8.662386513430306)"><text x="0" y="11.32477302686063" font-family="Virgil, Segoe UI Emoji" font-size="13.85981842148852px" fill="#000" text-anchor="start" style="white-space: pre;" direction="ltr">Submitted by &lt;username&gt; on &lt;date&gt;</text></g><g transform="translate(635.5972468058255 1020.7694501973189) rotate(0 43.310694376627566 9.02306132846411)"><text x="0" y="12.046122656928173" font-family="Virgil, Segoe UI Emoji" font-size="14.436898125542537px" fill="#000" text-anchor="start" style="white-space: pre;" direction="ltr">15 Comments</text></g><g stroke-linecap="round"><g transform="translate(639.8399022420235 1041.8400682969555) rotate(0 40.04631042480469 -0.18628438313817242)" fill-rule="evenodd"><path d="M0 0 L35.49 -0.17 L0 0" stroke="none" stroke-width="0" fill="#fff" fill-rule="evenodd"></path><path d="M0 0 C13.35 -0.06, 80.09 -0.37, 80.09 -0.37 C80.09 -0.37, 13.35 -0.06, 0 0 M0 0 C13.35 -0.06, 80.09 -0.37, 80.09 -0.37 C80.09 -0.37, 13.35 -0.06, 0 0" stroke="#000" stroke-width="2" fill="none"></path></g></g><g stroke-linecap="round" transform="translate(205.80126317341984 944.0484683779813) rotate(0 8.682365417480469 8.682365417480469)"><path d="M8.68 0 C10.45 -0.11, 12.84 0.84, 14.26 2.03 C15.69 3.23, 16.91 5.34, 17.23 7.17 C17.56 9.01, 17.13 11.41, 16.2 13.02 C15.27 14.63, 13.4 16.2, 11.65 16.84 C9.9 17.48, 7.46 17.48, 5.71 16.84 C3.96 16.2, 2.09 14.63, 1.16 13.02 C0.23 11.41, -0.19 9.01, 0.13 7.17 C0.45 5.34, 1.68 3.23, 3.1 2.03 C4.53 0.84, 7.75 0.31, 8.68 0 C9.61 -0.31, 8.68 0.03, 8.68 0.17 M8.68 0 C10.45 -0.11, 12.84 0.84, 14.26 2.03 C15.69 3.23, 16.91 5.34, 17.23 7.17 C17.56 9.01, 17.13 11.41, 16.2 13.02 C15.27 14.63, 13.4 16.2, 11.65 16.84 C9.9 17.48, 7.46 17.48, 5.71 16.84 C3.96 16.2, 2.09 14.63, 1.16 13.02 C0.23 11.41, -0.19 9.01, 0.13 7.17 C0.45 5.34, 1.68 3.23, 3.1 2.03 C4.53 0.84, 7.75 0.31, 8.68 0 C9.61 -0.31, 8.68 0.03, 8.68 0.17" stroke="none" stroke-width="0" fill="#000"></path><path d="M8.68 0 C10.45 -0.11, 12.84 0.84, 14.26 2.03 C15.69 3.23, 16.91 5.34, 17.23 7.17 C17.56 9.01, 17.13 11.41, 16.2 13.02 C15.27 14.63, 13.4 16.2, 11.65 16.84 C9.9 17.48, 7.46 17.48, 5.71 16.84 C3.96 16.2, 2.09 14.63, 1.16 13.02 C0.23 11.41, -0.19 9.01, 0.13 7.17 C0.45 5.34, 1.68 3.23, 3.1 2.03 C4.53 0.84, 7.75 0.31, 8.68 0 C9.61 -0.31, 8.68 0.03, 8.68 0.17 M8.68 0 C10.45 -0.11, 12.84 0.84, 14.26 2.03 C15.69 3.23, 16.91 5.34, 17.23 7.17 C17.56 9.01, 17.13 11.41, 16.2 13.02 C15.27 14.63, 13.4 16.2, 11.65 16.84 C9.9 17.48, 7.46 17.48, 5.71 16.84 C3.96 16.2, 2.09 14.63, 1.16 13.02 C0.23 11.41, -0.19 9.01, 0.13 7.17 C0.45 5.34, 1.68 3.23, 3.1 2.03 C4.53 0.84, 7.75 0.31, 8.68 0 C9.61 -0.31, 8.68 0.03, 8.68 0.17" stroke="#000" stroke-width="2" fill="none"></path></g><g stroke-linecap="round"><g transform="translate(214.820031318369 958.6270763763449) rotate(0 -0.053574567764940184 -6.192781975018818)"><path d="M0 0 C-0.02 -2.06, -0.09 -10.32, -0.11 -12.39 M0 0 C-0.02 -2.06, -0.09 -10.32, -0.11 -12.39" stroke="#fff" stroke-width="2" fill="none"></path></g><g transform="translate(214.820031318369 958.6270763763449) rotate(0 -0.053574567764940184 -6.192781975018818)"><path d="M2.06 -6.58 C1.59 -7.84, 1.13 -9.09, -0.11 -12.39 M2.06 -6.58 C1.46 -8.19, 0.86 -9.8, -0.11 -12.39" stroke="#fff" stroke-width="2" fill="none"></path></g><g transform="translate(214.820031318369 958.6270763763449) rotate(0 -0.053574567764940184 -6.192781975018818)"><path d="M-2.17 -6.55 C-1.73 -7.81, -1.28 -9.06, -0.11 -12.39 M-2.17 -6.55 C-1.6 -8.17, -1.03 -9.79, -0.11 -12.39" stroke="#fff" stroke-width="2" fill="none"></path></g></g><g transform="translate(206.43921668550007 965.2949556908465) rotate(0 7.234569452222729 6.890066144974014)"><text x="0" y="9.780132289948073" font-family="Virgil, Segoe UI Emoji" font-size="11.024105831958462px" fill="#000" text-anchor="start" style="white-space: pre;" direction="ltr">25</text></g><g stroke-linecap="round" transform="translate(207.9260241190579 989.1414913650154) rotate(0 8.682365417480469 8.682365417480469)"><path d="M8.68 0 C10.45 -0.11, 12.84 0.84, 14.26 2.03 C15.69 3.23, 16.91 5.34, 17.23 7.17 C17.56 9.01, 17.13 11.41, 16.2 13.02 C15.27 14.63, 13.4 16.2, 11.65 16.84 C9.9 17.48, 7.46 17.48, 5.71 16.84 C3.96 16.2, 2.09 14.63, 1.16 13.02 C0.23 11.41, -0.19 9.01, 0.13 7.17 C0.45 5.34, 1.68 3.23, 3.1 2.03 C4.53 0.84, 7.75 0.31, 8.68 0 C9.61 -0.31, 8.68 0.03, 8.68 0.17 M8.68 0 C10.45 -0.11, 12.84 0.84, 14.26 2.03 C15.69 3.23, 16.91 5.34, 17.23 7.17 C17.56 9.01, 17.13 11.41, 16.2 13.02 C15.27 14.63, 13.4 16.2, 11.65 16.84 C9.9 17.48, 7.46 17.48, 5.71 16.84 C3.96 16.2, 2.09 14.63, 1.16 13.02 C0.23 11.41, -0.19 9.01, 0.13 7.17 C0.45 5.34, 1.68 3.23, 3.1 2.03 C4.53 0.84, 7.75 0.31, 8.68 0 C9.61 -0.31, 8.68 0.03, 8.68 0.17" stroke="none" stroke-width="0" fill="#fff"></path><path d="M8.68 0 C10.45 -0.11, 12.84 0.84, 14.26 2.03 C15.69 3.23, 16.91 5.34, 17.23 7.17 C17.56 9.01, 17.13 11.41, 16.2 13.02 C15.27 14.63, 13.4 16.2, 11.65 16.84 C9.9 17.48, 7.46 17.48, 5.71 16.84 C3.96 16.2, 2.09 14.63, 1.16 13.02 C0.23 11.41, -0.19 9.01, 0.13 7.17 C0.45 5.34, 1.68 3.23, 3.1 2.03 C4.53 0.84, 7.75 0.31, 8.68 0 C9.61 -0.31, 8.68 0.03, 8.68 0.17 M8.68 0 C10.45 -0.11, 12.84 0.84, 14.26 2.03 C15.69 3.23, 16.91 5.34, 17.23 7.17 C17.56 9.01, 17.13 11.41, 16.2 13.02 C15.27 14.63, 13.4 16.2, 11.65 16.84 C9.9 17.48, 7.46 17.48, 5.71 16.84 C3.96 16.2, 2.09 14.63, 1.16 13.02 C0.23 11.41, -0.19 9.01, 0.13 7.17 C0.45 5.34, 1.68 3.23, 3.1 2.03 C4.53 0.84, 7.75 0.31, 8.68 0 C9.61 -0.31, 8.68 0.03, 8.68 0.17" stroke="#000" stroke-width="2" fill="none"></path></g><g stroke-linecap="round"><g transform="translate(216.7036503158642 1004.5783624466875) rotate(172.5772367751129 0.21775337370303305 -6.3471062562458656)"><path d="M0 0 C0.07 -2.12, 0.36 -10.58, 0.44 -12.69 M0 0 C0.07 -2.12, 0.36 -10.58, 0.44 -12.69" stroke="#000" stroke-width="2" fill="none"></path></g><g transform="translate(216.7036503158642 1004.5783624466875) rotate(172.5772367751129 0.21775337370303305 -6.3471062562458656)"><path d="M2.4 -6.66 C1.91 -8.18, 1.41 -9.7, 0.44 -12.69 M2.4 -6.66 C2 -7.88, 1.6 -9.1, 0.44 -12.69" stroke="#000" stroke-width="2" fill="none"></path></g><g transform="translate(216.7036503158642 1004.5783624466875) rotate(172.5772367751129 0.21775337370303305 -6.3471062562458656)"><path d="M-1.94 -6.8 C-1.34 -8.29, -0.74 -9.77, 0.44 -12.69 M-1.94 -6.8 C-1.46 -8, -0.98 -9.19, 0.44 -12.69" stroke="#000" stroke-width="2" fill="none"></path></g></g><g transform="translate(210.09115353445844 1011.1936490982092) rotate(0 4 14.5)"><text x="0" y="9.5" font-family="Virgil, Segoe UI Emoji" font-size="11.024105831958462px" fill="#000" text-anchor="start" style="white-space: pre;" direction="ltr">2</text><text x="0" y="24" font-family="Virgil, Segoe UI Emoji" font-size="11.024105831958462px" fill="#000" text-anchor="start" style="white-space: pre;" direction="ltr"></text></g><g stroke-linecap="round" transform="translate(186.35397847493363 1060.4883398576244) rotate(0 276.1559600830077 62.76258850097656)"><path d="M0 0 L552.31 0 L552.31 125.53 L0 125.53" stroke="none" stroke-width="0" fill="#fff"></path><path d="M0 0 C165.51 0, 331.01 0, 552.31 0 M0 0 C191.37 0, 382.75 0, 552.31 0 M552.31 0 C552.31 30.3, 552.31 60.6, 552.31 125.53 M552.31 0 C552.31 27.88, 552.31 55.75, 552.31 125.53 M552.31 125.53 C400.78 125.53, 249.25 125.53, 0 125.53 M552.31 125.53 C413.14 125.53, 273.97 125.53, 0 125.53 M0 125.53 C0 90.17, 0 54.81, 0 0 M0 125.53 C0 79.44, 0 33.35, 0 0" stroke="#000" stroke-width="1" fill="none"></path></g><g stroke-linecap="round" transform="translate(1017.4655061752101 300.34546981746024) rotate(0 253.65451558430993 159.9964040120443)"><path d="M0 0 L507.31 0 L507.31 319.99 L0 319.99" stroke="none" stroke-width="0" fill="#fff"></path><path d="M0 0 C167.24 0, 334.49 0, 507.31 0 M0 0 C120.92 0, 241.85 0, 507.31 0 M507.31 0 C507.31 88.45, 507.31 176.9, 507.31 319.99 M507.31 0 C507.31 126.53, 507.31 253.06, 507.31 319.99 M507.31 319.99 C352.72 319.99, 198.14 319.99, 0 319.99 M507.31 319.99 C391.96 319.99, 276.6 319.99, 0 319.99 M0 319.99 C0 255.73, 0 191.47, 0 0 M0 319.99 C0 220.12, 0 120.24, 0 0" stroke="#000" stroke-width="1" fill="none"></path></g><g transform="translate(1057.3578376164533 309.462238336544) rotate(0 112 13)"><text x="112" y="18" font-family="Virgil, Segoe UI Emoji" font-size="20px" fill="#000" text-anchor="middle" style="white-space: pre;" direction="ltr">Idea Summary or Title</text></g><g stroke-linecap="round" transform="translate(1455.3944689141144 309.7398467741734) rotate(0 25.531875578966947 9.86643844679331)"><path d="M4.67 1.26 L48.33 -0.49 L49.58 3.68 L50.1 18.35 L46.92 18.5 L3.05 19.6 L-0.81 16.8 L-0.4 5.97 L2.61 -0.66 L6.01 -1.54" stroke="none" stroke-width="0" fill="#000"></path><path d="M4.93 0 M4.93 0 C16.24 -0.28, 26.86 0.67, 46.13 0 M4.93 0 C21.77 1.18, 38.32 1.11, 46.13 0 M46.13 0 C50.28 -1.59, 50.16 0.41, 51.06 4.93 M46.13 0 C47.81 -1.28, 52.86 3.78, 51.06 4.93 M51.06 4.93 C51.07 7, 50.42 11.69, 51.06 14.8 M51.06 4.93 C50.72 7.17, 51.51 10.44, 51.06 14.8 M51.06 14.8 C50.69 19.96, 49.29 20.67, 46.13 19.73 M51.06 14.8 C48.8 16.03, 48.96 17.98, 46.13 19.73 M46.13 19.73 C38.24 18.73, 28.48 21.71, 4.93 19.73 M46.13 19.73 C38.05 19.48, 28.65 19.6, 4.93 19.73 M4.93 19.73 C0.23 19.9, 0.14 17.77, 0 14.8 M4.93 19.73 C0.13 20.2, 1.2 16.72, 0 14.8 M0 14.8 C0.89 11.94, 0.34 8.26, 0 4.93 M0 14.8 C0.21 11.11, -0.14 7.39, 0 4.93 M0 4.93 C-1.9 2.94, 2.71 -0.84, 4.93 0 M0 4.93 C0.63 1.44, 0.13 1.64, 4.93 0" stroke="#000000" stroke-width="2" fill="none"></path></g><g transform="translate(1466.4461320834287 314.44341038811825) rotate(0 17 11)"><text x="0" y="8" font-family="Virgil, Segoe UI Emoji" font-size="8.366102477340284px" fill="#fff" text-anchor="start" style="white-space: pre;" direction="ltr">Unsolved</text><text x="0" y="19" font-family="Virgil, Segoe UI Emoji" font-size="8.366102477340284px" fill="#fff" text-anchor="start" style="white-space: pre;" direction="ltr"></text></g><g transform="translate(1055.4459367782379 366.95312655191236) rotate(0 233 109)"><text x="0" y="10.571428571428571" font-family="Virgil, Segoe UI Emoji" font-size="12.968430378226254px" fill="#343a40" text-anchor="start" style="white-space: pre;" direction="ltr">description ..Lorem ipsum dolor sit amet, consectetur adipiscing elit, sed </text><text x="0" y="26.142857142857142" font-family="Virgil, Segoe UI Emoji" font-size="12.968430378226254px" fill="#343a40" text-anchor="start" style="white-space: pre;" direction="ltr">do...lorem ipsum dolor sit amet, consectetur adipiscing elit, sed do...</text><text x="0" y="41.714285714285715" font-family="Virgil, Segoe UI Emoji" font-size="12.968430378226254px" fill="#343a40" text-anchor="start" style="white-space: pre;" direction="ltr"></text><text x="0" y="57.285714285714285" font-family="Virgil, Segoe UI Emoji" font-size="12.968430378226254px" fill="#343a40" text-anchor="start" style="white-space: pre;" direction="ltr">description ..Lorem ipsum dolor sit amet, consectetur adipiscing elit, sed </text><text x="0" y="72.85714285714286" font-family="Virgil, Segoe UI Emoji" font-size="12.968430378226254px" fill="#343a40" text-anchor="start" style="white-space: pre;" direction="ltr">do...lorem ipsum dolor sit amet, consectetur adipiscing elit, sed do...</text><text x="0" y="88.42857142857143" font-family="Virgil, Segoe UI Emoji" font-size="12.968430378226254px" fill="#343a40" text-anchor="start" style="white-space: pre;" direction="ltr">description ..Lorem ipsum dolor sit amet, consectetur adipiscing elit, sed </text><text x="0" y="104" font-family="Virgil, Segoe UI Emoji" font-size="12.968430378226254px" fill="#343a40" text-anchor="start" style="white-space: pre;" direction="ltr">do...lorem ipsum dolor sit amet, consectetur adipiscing elit, sed do...</text><text x="0" y="119.57142857142857" font-family="Virgil, Segoe UI Emoji" font-size="12.968430378226254px" fill="#343a40" text-anchor="start" style="white-space: pre;" direction="ltr"></text><text x="0" y="135.14285714285714" font-family="Virgil, Segoe UI Emoji" font-size="12.968430378226254px" fill="#343a40" text-anchor="start" style="white-space: pre;" direction="ltr">* Lorem ipsum dolor sit</text><text x="0" y="150.71428571428572" font-family="Virgil, Segoe UI Emoji" font-size="12.968430378226254px" fill="#343a40" text-anchor="start" style="white-space: pre;" direction="ltr">* Lorem ipsum dolor sit</text><text x="0" y="166.28571428571428" font-family="Virgil, Segoe UI Emoji" font-size="12.968430378226254px" fill="#343a40" text-anchor="start" style="white-space: pre;" direction="ltr">* Lorem ipsum dolor sit</text><text x="0" y="181.85714285714286" font-family="Virgil, Segoe UI Emoji" font-size="12.968430378226254px" fill="#343a40" text-anchor="start" style="white-space: pre;" direction="ltr"></text><text x="0" y="197.42857142857142" font-family="Virgil, Segoe UI Emoji" font-size="12.968430378226254px" fill="#343a40" text-anchor="start" style="white-space: pre;" direction="ltr">Lorem ipsum dolor sitLorem ipsum dolor sitLorem ipsum dolor sit</text><text x="0" y="213" font-family="Virgil, Segoe UI Emoji" font-size="12.968430378226254px" fill="#343a40" text-anchor="start" style="white-space: pre;" direction="ltr">Lorem ipsum dolor sitLorem ipsum dolor sit.</text></g><g transform="translate(1058.4628028264146 339.6603097478206) rotate(0 91.40163167317712 6.459479270189192)"><text x="0" y="9.918958540378375" font-family="Virgil, Segoe UI Emoji" font-size="10.335166832302706px" fill="#495057" text-anchor="start" style="white-space: pre;" direction="ltr">Submitted by &lt;username&gt; on &lt;date&gt;</text></g><g transform="translate(1056.9842159937325 591.3492008033134) rotate(0 43.310694376627566 9.023061328464081)"><text x="0" y="12.046122656928173" font-family="Virgil, Segoe UI Emoji" font-size="14.436898125542537px" fill="#000" text-anchor="start" style="white-space: pre;" direction="ltr">15 Comments</text></g><g stroke-linecap="round"><g transform="translate(1061.2268714299307 612.41981890295) rotate(0 40.04631042480469 -0.18628438313817242)" fill-rule="evenodd"><path d="M0 0 L35.49 -0.17 L0 0" stroke="none" stroke-width="0" fill="#fff" fill-rule="evenodd"></path><path d="M0 0 C13.35 -0.06, 80.09 -0.37, 80.09 -0.37 C80.09 -0.37, 13.35 -0.06, 0 0 M0 0 C13.35 -0.06, 80.09 -0.37, 80.09 -0.37 C80.09 -0.37, 13.35 -0.06, 0 0" stroke="#000" stroke-width="2" fill="none"></path></g></g><g stroke-linecap="round" transform="translate(1026.809224386066 315.34867796835107) rotate(0 8.682365417480469 8.682365417480469)"><path d="M8.68 0 C10.45 -0.11, 12.84 0.84, 14.26 2.03 C15.69 3.23, 16.91 5.34, 17.23 7.17 C17.56 9.01, 17.13 11.41, 16.2 13.02 C15.27 14.63, 13.4 16.2, 11.65 16.84 C9.9 17.48, 7.46 17.48, 5.71 16.84 C3.96 16.2, 2.09 14.63, 1.16 13.02 C0.23 11.41, -0.19 9.01, 0.13 7.17 C0.45 5.34, 1.68 3.23, 3.1 2.03 C4.53 0.84, 7.75 0.31, 8.68 0 C9.61 -0.31, 8.68 0.03, 8.68 0.17 M8.68 0 C10.45 -0.11, 12.84 0.84, 14.26 2.03 C15.69 3.23, 16.91 5.34, 17.23 7.17 C17.56 9.01, 17.13 11.41, 16.2 13.02 C15.27 14.63, 13.4 16.2, 11.65 16.84 C9.9 17.48, 7.46 17.48, 5.71 16.84 C3.96 16.2, 2.09 14.63, 1.16 13.02 C0.23 11.41, -0.19 9.01, 0.13 7.17 C0.45 5.34, 1.68 3.23, 3.1 2.03 C4.53 0.84, 7.75 0.31, 8.68 0 C9.61 -0.31, 8.68 0.03, 8.68 0.17" stroke="none" stroke-width="0" fill="#000"></path><path d="M8.68 0 C10.45 -0.11, 12.84 0.84, 14.26 2.03 C15.69 3.23, 16.91 5.34, 17.23 7.17 C17.56 9.01, 17.13 11.41, 16.2 13.02 C15.27 14.63, 13.4 16.2, 11.65 16.84 C9.9 17.48, 7.46 17.48, 5.71 16.84 C3.96 16.2, 2.09 14.63, 1.16 13.02 C0.23 11.41, -0.19 9.01, 0.13 7.17 C0.45 5.34, 1.68 3.23, 3.1 2.03 C4.53 0.84, 7.75 0.31, 8.68 0 C9.61 -0.31, 8.68 0.03, 8.68 0.17 M8.68 0 C10.45 -0.11, 12.84 0.84, 14.26 2.03 C15.69 3.23, 16.91 5.34, 17.23 7.17 C17.56 9.01, 17.13 11.41, 16.2 13.02 C15.27 14.63, 13.4 16.2, 11.65 16.84 C9.9 17.48, 7.46 17.48, 5.71 16.84 C3.96 16.2, 2.09 14.63, 1.16 13.02 C0.23 11.41, -0.19 9.01, 0.13 7.17 C0.45 5.34, 1.68 3.23, 3.1 2.03 C4.53 0.84, 7.75 0.31, 8.68 0 C9.61 -0.31, 8.68 0.03, 8.68 0.17" stroke="#000" stroke-width="2" fill="none"></path></g><g stroke-linecap="round"><g transform="translate(1039.9662726548677 342.72268302999265) rotate(0 -0.31217601865364486 -0.009118913068562051)"><path d="M0 0 C-0.1 0, -0.52 -0.02, -0.62 -0.02 M0 0 C-0.1 0, -0.52 -0.02, -0.62 -0.02" stroke="#fff" stroke-width="2" fill="none"></path></g><g transform="translate(1039.9662726548677 342.72268302999265) rotate(0 -0.31217601865364486 -0.009118913068562051)"><path d="M-0.33 -0.12 C-0.44 -0.08, -0.55 -0.04, -0.62 -0.02 M-0.33 -0.12 C-0.43 -0.08, -0.54 -0.05, -0.62 -0.02" stroke="#fff" stroke-width="2" fill="none"></path></g><g transform="translate(1039.9662726548677 342.72268302999265) rotate(0 -0.31217601865364486 -0.009118913068562051)"><path d="M-0.33 0.1 C-0.44 0.05, -0.55 0.01, -0.62 -0.02 M-0.33 0.1 C-0.44 0.06, -0.54 0.02, -0.62 -0.02" stroke="#fff" stroke-width="2" fill="none"></path></g></g><g transform="translate(1027.4471778981465 336.346324949185) rotate(0 7.234569452222786 6.890066144974043)"><text x="0" y="9.780132289948073" font-family="Virgil, Segoe UI Emoji" font-size="11.024105831958462px" fill="#000" text-anchor="start" style="white-space: pre;" direction="ltr">25</text></g><g stroke-linecap="round" transform="translate(1028.9339853317047 360.4417009553852) rotate(0 8.682365417480469 8.682365417480469)"><path d="M8.68 0 C10.45 -0.11, 12.84 0.84, 14.26 2.03 C15.69 3.23, 16.91 5.34, 17.23 7.17 C17.56 9.01, 17.13 11.41, 16.2 13.02 C15.27 14.63, 13.4 16.2, 11.65 16.84 C9.9 17.48, 7.46 17.48, 5.71 16.84 C3.96 16.2, 2.09 14.63, 1.16 13.02 C0.23 11.41, -0.19 9.01, 0.13 7.17 C0.45 5.34, 1.68 3.23, 3.1 2.03 C4.53 0.84, 7.75 0.31, 8.68 0 C9.61 -0.31, 8.68 0.03, 8.68 0.17 M8.68 0 C10.45 -0.11, 12.84 0.84, 14.26 2.03 C15.69 3.23, 16.91 5.34, 17.23 7.17 C17.56 9.01, 17.13 11.41, 16.2 13.02 C15.27 14.63, 13.4 16.2, 11.65 16.84 C9.9 17.48, 7.46 17.48, 5.71 16.84 C3.96 16.2, 2.09 14.63, 1.16 13.02 C0.23 11.41, -0.19 9.01, 0.13 7.17 C0.45 5.34, 1.68 3.23, 3.1 2.03 C4.53 0.84, 7.75 0.31, 8.68 0 C9.61 -0.31, 8.68 0.03, 8.68 0.17" stroke="none" stroke-width="0" fill="#fff"></path><path d="M8.68 0 C10.45 -0.11, 12.84 0.84, 14.26 2.03 C15.69 3.23, 16.91 5.34, 17.23 7.17 C17.56 9.01, 17.13 11.41, 16.2 13.02 C15.27 14.63, 13.4 16.2, 11.65 16.84 C9.9 17.48, 7.46 17.48, 5.71 16.84 C3.96 16.2, 2.09 14.63, 1.16 13.02 C0.23 11.41, -0.19 9.01, 0.13 7.17 C0.45 5.34, 1.68 3.23, 3.1 2.03 C4.53 0.84, 7.75 0.31, 8.68 0 C9.61 -0.31, 8.68 0.03, 8.68 0.17 M8.68 0 C10.45 -0.11, 12.84 0.84, 14.26 2.03 C15.69 3.23, 16.91 5.34, 17.23 7.17 C17.56 9.01, 17.13 11.41, 16.2 13.02 C15.27 14.63, 13.4 16.2, 11.65 16.84 C9.9 17.48, 7.46 17.48, 5.71 16.84 C3.96 16.2, 2.09 14.63, 1.16 13.02 C0.23 11.41, -0.19 9.01, 0.13 7.17 C0.45 5.34, 1.68 3.23, 3.1 2.03 C4.53 0.84, 7.75 0.31, 8.68 0 C9.61 -0.31, 8.68 0.03, 8.68 0.17" stroke="#000" stroke-width="2" fill="none"></path></g><g stroke-linecap="round"><g transform="translate(1037.7116115285107 375.629731705026) rotate(172.5772367751129 0.2177533737030899 -6.3471062562458656)"><path d="M0 0 C0.07 -2.12, 0.36 -10.58, 0.44 -12.69 M0 0 C0.07 -2.12, 0.36 -10.58, 0.44 -12.69" stroke="#000" stroke-width="2" fill="none"></path></g><g transform="translate(1037.7116115285107 375.629731705026) rotate(172.5772367751129 0.2177533737030899 -6.3471062562458656)"><path d="M2.4 -6.66 C1.78 -8.55, 1.17 -10.45, 0.44 -12.69 M2.4 -6.66 C1.76 -8.63, 1.11 -10.61, 0.44 -12.69" stroke="#000" stroke-width="2" fill="none"></path></g><g transform="translate(1037.7116115285107 375.629731705026) rotate(172.5772367751129 0.2177533737030899 -6.3471062562458656)"><path d="M-1.94 -6.8 C-1.19 -8.65, -0.45 -10.5, 0.44 -12.69 M-1.94 -6.8 C-1.16 -8.73, -0.38 -10.66, 0.44 -12.69" stroke="#000" stroke-width="2" fill="none"></path></g></g><g transform="translate(1033.3792050791358 384.11137170941225) rotate(0 4 14.5)"><text x="0" y="9.5" font-family="Virgil, Segoe UI Emoji" font-size="11.024105831958462px" fill="#000" text-anchor="start" style="white-space: pre;" direction="ltr">2</text><text x="0" y="24" font-family="Virgil, Segoe UI Emoji" font-size="11.024105831958462px" fill="#000" text-anchor="start" style="white-space: pre;" direction="ltr"></text></g><g transform="translate(1210.2498843722892 590.5556845655401) rotate(0 75.5 9.5)"><text x="0" y="13" font-family="Virgil, Segoe UI Emoji" font-size="14.436898125542537px" fill="#000" text-anchor="start" style="white-space: pre;" direction="ltr">2 Accpeted Solutions</text></g><g stroke-linecap="round" transform="translate(1388.9412906536745 582.581843003011) rotate(0 57.51137793899295 14.042420917745943)"><path d="M7.84 -1.62 L111.8 0.08 L113.65 5.79 L115.72 26.03 L112.53 25.03 L106.85 27.15 L4.33 27.38 L1.8 25.55 L-1.59 5.73 L2.91 -0.04 L5.35 0.39" stroke="none" stroke-width="0" fill="#000"></path><path d="M7.02 0 M7.02 0 C36.37 0.45, 63.84 1.74, 108 0 M7.02 0 C46.11 -1.31, 87.79 -0.39, 108 0 M108 0 C112.34 -1.57, 113.25 3.47, 115.02 7.02 M108 0 C111.32 -2.18, 114.85 1.39, 115.02 7.02 M115.02 7.02 C115.39 10.05, 113.7 14.86, 115.02 21.06 M115.02 7.02 C114.77 10.55, 115 13.39, 115.02 21.06 M115.02 21.06 C113.91 25.78, 114.02 27.33, 108 28.08 M115.02 21.06 C113.53 27.18, 113.91 27.14, 108 28.08 M108 28.08 C80.74 27.42, 50.3 29.99, 7.02 28.08 M108 28.08 C74.92 27.66, 42.74 27.51, 7.02 28.08 M7.02 28.08 C4.26 26.58, -1.2 25.89, 0 21.06 M7.02 28.08 C0.08 27.56, -0.67 24.76, 0 21.06 M0 21.06 C0.31 15.7, 0.44 9.53, 0 7.02 M0 21.06 C-0.71 18.74, 0.5 15.88, 0 7.02 M0 7.02 C-0.3 1.4, 2.07 1.87, 7.02 0 M0 7.02 C-2.14 4.46, 0.49 0.82, 7.02 0" stroke="#000000" stroke-width="2" fill="none"></path></g><g transform="translate(1394.402115741179 589.458831394855) rotate(0 51 8)"><text x="0" y="11" font-family="Virgil, Segoe UI Emoji" font-size="11.987116049948067px" fill="#fff" text-anchor="start" style="white-space: pre;" direction="ltr">+ Submit Solution</text></g></svg>